ply
format ascii 1.0
comment Generated by PyMesh
element vertex 441
property float x
property float y
property float z
property float charge
property float hbond
property float hphob
property float nx
property float ny
property float nz
property float si
element face 769
property list uchar int vertex_indices
end_header
108.738 139.178 159.156 1.87471 0 4.2 0.457539 -0.631887 -0.625601 0.668252
114.443 151.501 166.058 0.0233055 0 4.2 0.153027 0.852973 0.499019 0.999956
114.848 145.846 165.628 1.60647 0 3.31941 0.892705 -0.0118174 0.450487 -0.522335
117.598 147.335 165.632 0.235471 0 -0.4 -0.0331554 -0.950798 0.308032 0.894962
128.247 142.759 158.827 0.818573 -0.526185 -3.5 -0.379631 0.210223 -0.900936 -0.346962
122.563 140.981 163.179 0.793219 -0.25924 -3.69438 -0.976177 0.141468 -0.164515 -0.461831
122.381 134.971 163.958 0.523528 0 4.2 -0.801938 0.583394 0.128635 -0.677336
112.154 147.661 158.105 -0.286619 -0.107397 1.04832 -0.0750646 0.327516 -0.941859 -0.598368
113.073 152.124 158.728 0.258504 0 4.2 -0.343025 0.877622 -0.334835 0.999895
109.453 140.138 167.113 6.6276 0 4.2 0.27786 -0.607314 0.744287 0.999911
109.011 148.273 158.936 0.240381 0 3.8 -0.296556 0.918665 -0.260976 0.999972
122.266 142.607 168.412 -1.96159 -0.652526 -3.5 -0.872466 0.15813 -0.462383 0.999942
114.319 152.658 164.365 0.284921 0 4.2 0.254764 0.966279 -0.037426 0.999915
123.676 134.718 156.327 0.100715 0 4.2 0.297536 0.687187 -0.662757 0.999947
125.779 143.82 160.087 0.329901 0 -3.5 -0.25539 0.0366253 -0.966144 -0.999906
112.608 151.424 162.837 0.182928 0 4.2 -0.555619 0.575658 -0.599921 0.999877
122.82 137.895 164.689 2.69914 0 -3.9 -0.89155 -0.251404 0.376743 -0.7895
118.618 147.438 165.8 0.373461 0 -0.4 0.16093 -0.866553 0.472427 0.555389
115.394 141.928 168.053 0.585231 0 -1.3 0.932871 0.0335368 -0.358647 -0.0331841
122.79 138.607 160.126 2.36139 0 -3.9 -0.922177 -0.33343 0.195995 -0.435633
121.432 152.516 158.278 1.91361 0 -0.8 0.107311 0.499572 -0.8596 -0.146015
111.732 139.658 161.219 0.50309 0 -0.559324 -0.484987 -0.383602 -0.785899 -0.755082
118.398 152.104 158.23 1.02301 -0.601547 -0.8 -0.455408 0.237404 -0.858046 0.314309
123.393 137.103 166.148 2.07421 0 -3.9 -0.965527 0.165625 -0.200816 -0.999896
124.502 150.198 158.096 1.43344 0 -3.9 0.257706 -0.267403 -0.928484 0.387344
118.188 148.053 168.51 0.59656 0 -0.4 0.26354 -0.936339 -0.231983 0.999925
122.278 141.904 163.662 -1.60779 -0.88759 -3.5 -0.927353 0.0489029 -0.370979 0.678164
110.499 140.393 162.447 4.43202 0 1.47871 0.117015 -0.790631 0.601008 -0.999872
112.632 142.872 158.915 0.921512 0 -1.3 -0.202451 -0.618827 -0.758991 -0.133143
122.246 140.299 164.155 1.32113 -0.0449064 -3.87346 -0.98684 0.0378841 -0.157199 0.077559
127.821 148.911 159.437 0.816517 0 -3.9 0.10086 0.805777 -0.583567 0.999927
116.064 141.555 169.258 0.273567 0 -1.3 0.96782 -0.0176759 -0.25102 0.999778
124.029 137.893 156.911 2.64602 0 -3.9 -0.230079 -0.0668421 -0.970874 0.185551
127.575 148.652 163.658 0.581173 0 -3.9 0.313759 0.914822 -0.254275 -0.999922
114.672 145.826 158.216 -0.392783 0 -1.3 0.688281 -0.0788013 -0.721151 0.428775
111.164 150.62 163.673 0.170477 0 4.2 -0.545454 0.498183 -0.674013 0.999946
110.061 145.548 157.366 0.340238 0 3.8 0.186254 -0.466616 -0.864627 0.516805
121.624 139.505 168.451 11.8438 0 -3.9 -0.973103 0.131701 -0.189011 0.999918
127.72 138.243 156.999 0.265473 0 -3.9 0.125663 0.753223 -0.64565 0.999905
126.25 150.639 161.348 -0.666136 -0.1373 -3.9 0.865172 0.453125 0.214835 0.205492
119.269 152.612 158.043 0.162333 0 -0.8 -0.20247 0.298697 -0.932623 0.55005
114.929 146.881 166.111 2.50474 0 4.2 0.782121 -0.467996 0.411421 -0.65455
108.015 138.48 160.415 3.0181 0 4.2 0.402674 -0.903145 -0.148937 0.999895
122.006 135.13 156.913 0.173611 0 4.2 -0.450384 0.819157 -0.355157 0.665915
125.658 151.181 163.377 1.15259 0 -3.9 0.972034 0.221172 -0.0789497 -0.999928
123.36 143.016 158.962 -1.04324 -0.673156 -3.5 -0.145713 0.576783 -0.803797 0.688062
119.206 132.73 161.689 -0.0418096 0 4.2 -0.68018 0.5944 -0.429003 0.999925
123.596 135.428 157.029 0.486021 0 4.2 -0.0375382 0.620838 -0.78304 0.0235126
117.538 150.807 161.156 0.661968 -0.60406 0.703197 -0.620592 0.647869 0.441736 -0.999886
126.806 149.14 164.336 0.699947 0 -3.9 0.551961 0.760955 -0.341008 -0.999928
121.017 148.781 167.826 1.60499 -0.463497 -0.575374 -0.368517 -0.829409 0.419852 -0.999928
117.071 147.967 168.298 2.24995 0 -0.4 0.1098 -0.958096 -0.264569 -0.999895
125.585 137.531 156.447 0.610053 0 -3.9 -0.190263 -0.0570467 -0.980074 0.757511
109.323 148.518 162.482 0.195502 0 3.8 -0.455344 0.866201 -0.205812 0.999908
109.695 141.114 167.635 6.96887 0 4.2 -0.0447068 -0.689717 0.722697 -0.999909
116.055 139.444 161.329 0.20676 0 -1.3 0.919297 -0.318925 0.230609 0.893951
115.932 139.905 166.159 0.215498 0 -1.3 0.893934 -0.361342 0.265168 0.805543
118.72 148.945 156.837 -0.397088 -0.314823 -0.4 0.0437489 -0.515346 -0.855865 0.999922
107.332 142.224 157.185 -0.778092 -0.219934 4.2 0.405032 0.0321831 -0.913736 0.999925
119.378 147.255 160.84 0.52276 0 -0.4 0.0546455 -0.895801 0.441082 0.0982693
115.723 139.442 159.518 0.501998 0 -1.3 0.683471 -0.543112 -0.487747 0.949932
122.077 134.342 160.262 0.283908 0 4.2 -0.720497 0.573581 -0.389728 -0.494418
128.317 148.639 161.68 1.21849 0 -3.9 -0.01067 0.925374 0.378905 -0.999929
117.226 150.819 167.27 -0.63549 -0 -0.4 -0.319585 0.881575 0.347404 -0.999918
115.525 150.946 163.51 0.492828 0 4.2 0.384681 0.706344 -0.594221 -0.791503
115.351 141.541 162.18 -0.184626 0 -1.3 0.963391 0.17862 0.199932 -0.370734
115.247 141.993 167.012 -0.19846 0 -1.3 0.97575 0.136002 0.17151 -0.295636
117.709 151.11 158.536 2.55665 -0.483967 -0.595189 -0.552893 0.26988 -0.788336 -0.619569
121.699 151.48 157.742 8.67546 0 -2.30784 -0.0821802 0.108291 -0.990717 0.39642
121.165 148.232 163.29 1.57674 -0.690997 -0.662684 -0.53975 -0.809738 -0.230206 -0.9999
115.41 147.01 168.982 0.911172 0 -0.847025 0.795303 -0.43655 -0.420615 -0.999891
110.799 150.103 160.473 0.189509 0 4.2 -0.631707 0.685052 0.362837 0.623405
123.446 136.484 161.392 1.99111 0 -1.76776 -0.901664 0.319017 -0.291941 -0.999873
116.102 142.126 170.368 0.00645675 0 -1.3 0.989633 0.111059 -0.0910599 0.999946
115.502 144.784 165.35 0.833353 0 -1.3 0.898464 0.25987 0.353879 0.875276
115.267 145.761 168.946 1.03074 0 -1.3 0.85119 0.0597184 -0.52145 0.999879
121.988 144.85 162.033 0.0038394 0 -0.7 -0.852306 -0.40878 0.326302 0.703098
113.667 142.12 158.755 0.133184 0 -1.3 -0.343994 -0.2686 -0.899734 0.0593176
114.712 141.55 158.411 0.334328 0 -1.3 -0.128338 -0.0684177 -0.989368 0.672956
110.754 148.02 158.167 0.173286 0 3.9999 0.057339 0.494985 -0.867007 -0.136069
114.99 138.752 162.453 -0.194142 -0.0686689 -1.3 0.843162 -0.440002 0.308994 0.0808542
114.851 139.209 167.284 -0.345903 -0.0684154 -1.3 0.754476 -0.583742 0.300019 0.217157
107.114 140.387 158.365 1.29134 -0.155517 4.2 0.0748727 -0.50441 -0.860212 -0.999922
124.84 151.742 157.854 0.69918 0 -3.9 0.315463 -0.10024 -0.943629 0.999922
126.843 137.399 156.372 0.316156 0 -3.9 0.0692673 0.351415 -0.933654 0.999901
125.598 135.549 157.1 0.760065 0 -3.9 -0.161033 -0.130731 -0.978252 -0.999925
126.555 149.452 159.92 0.690513 0 -3.9 0.475141 0.563018 -0.676204 -0.444335
112.962 144.456 158.116 0.403625 -0.284319 -1.3 -0.123046 -0.397316 -0.909395 -0.444118
123.217 141.987 158.488 -1.26674 -0.0624258 -3.5 -0.128823 0.177344 -0.975681 0.999876
119.206 133.043 162.886 0.0182591 0 4.2 -0.672018 0.740417 0.0132369 0.999905
111.405 149.014 158.212 0.171943 0 4.2 -0.238509 0.17996 -0.954321 0.416097
127.232 148.25 158.881 0.110562 0 -2.27162 0.237029 0.563308 -0.791518 -0.144771
116.187 147.632 168.71 1.40086 0 -0.4 0.374806 -0.863658 -0.337069 -0.9999
121.113 133.154 159.24 0.115426 0 4.2 -0.552342 0.792737 0.257849 -0.750219
121.103 134.12 157.932 0.140279 0 4.2 -0.632335 0.743814 0.216548 0.409986
118.72 149.963 156.771 -0.559276 -0.288117 -0.4 -0.0446114 0.269022 -0.9621 0.999916
129.52 144.068 158.113 0.44175 0 4.2 -0.675619 0.0888551 -0.731877 0.999934
108.985 146.331 156.775 0.206918 0 3.8 0.272715 -0.210928 -0.938688 0.999915
129.445 139.142 158.786 -0.462474 -0.287932 -3.5 0.437404 -0.0365085 -0.898524 -0.999953
119.596 150.523 157.365 -0.253049 -0.43101 -0.606206 0.318254 0.261557 -0.911209 0.262155
111.678 141.712 169.392 1.52393 0 -1.3 -0.603518 -0.635317 0.481807 -0.999935
114.155 151.447 160.954 0.209341 0 4.2 0.344012 0.889983 0.29931 0.0496041
129.365 142.888 158.3 -0.100494 0 0.285154 -0.51601 0.104144 -0.850228 -0.999913
122.127 141.644 165.98 -1.18378 0 -3.5 -0.98193 0.0818639 0.17062 0.510978
128.536 138.432 157.861 0.132796 0 -3.9 0.325781 0.536126 -0.77874 -0.999932
121.244 134.114 156.535 0.0357792 0 4.2 -0.706914 0.692716 -0.142887 -0.999908
109.032 144.589 157.887 0.425016 0 3.8 0.0757146 -0.303186 -0.949919 0.0778409
122.351 141.118 159.048 -1.02771 -0.828037 -3.5 -0.861393 0.043136 -0.506105 0.235786
107.285 141.234 157.623 -0.36487 -0.764831 4.2 0.319326 -0.438481 -0.840098 0.999903
125.977 151.361 160.625 0.339863 -0.324978 -3.9 0.924973 0.378961 0.0285242 0.999955
125.565 150.962 158.525 0.962071 0 -3.9 0.679084 -0.149552 -0.718665 0.999895
109.428 148.138 157.987 0.216501 0 3.8 -0.128625 0.870131 -0.47574 0.999892
118.952 146.919 159.931 0.471352 0 -0.4 0.19013 -0.981717 0.00910444 0.664028
113.163 151.56 160.82 0.222986 0 4.2 -0.343405 0.863262 0.369935 0.298588
109.345 139.341 162.288 6.22065 0 4.2 0.42579 -0.774279 0.468183 0.255968
118.921 147.321 164.761 0.491701 0 -0.4 0.151898 -0.972366 -0.177291 0.581971
120.178 133.754 161.566 0.143822 0 4.2 -0.617998 0.659798 -0.427487 0.725205
107.41 143.332 157.782 -1.0321 -0.749818 4.2 0.260069 0.385373 -0.885354 -0.999916
128.371 148.025 158.594 0.668367 0 -3.9 -0.0483199 0.271526 -0.961217 0.999931
112.421 140.583 169.572 0.334594 0 -1.3 -0.747549 -0.548494 0.374601 0.999909
113.346 145.166 157.402 -0.684584 -0.578489 -1.3 0.101978 -0.4112 -0.905823 0.640049
119.788 149.358 157.262 -0.849599 -0.106142 -0.4 0.56139 -0.201811 -0.802567 0.638797
120.48 133.543 157.02 0.0235527 0 4.2 -0.607532 0.789731 -0.0850327 -0.999929
112.056 146.73 157.608 -0.88609 0 -1.3 -0.0763785 0.256231 -0.963593 0.238467
116.561 147.52 165.686 0.481412 0 2.1185 0.159495 -0.896928 0.412409 -0.383537
115.46 139.133 165.078 1.37093 0 -1.3 0.593271 -0.791915 -0.144565 0.741443
107.849 138.507 161.453 3.84523 0 4.2 0.171597 -0.951757 0.254387 0.999942
114.336 152.221 163.109 0.273981 0 4.2 0.353842 0.703096 -0.616808 0.543335
120.854 135.085 166.574 0.256529 0 4.2 -0.61815 0.589682 -0.519774 0.999932
110.547 141.663 168.472 3.8149 0 1.31692 -0.307639 -0.736994 0.601829 -0.999941
114.456 140.482 158.589 0.109153 0 -1.3 -0.195598 -0.287979 -0.937449 0.814583
109.057 139.331 166.419 7.81659 0 4.2 0.480108 -0.870954 -0.104573 0.999909
111.921 143.745 158.352 8.51227 0 -1.3 -0.0920005 -0.392368 -0.915196 0.413196
113.506 138.431 165.701 1.21839 -0.399543 -1.3 -0.0257653 -0.934763 -0.354337 0.452978
113.751 138.713 168.484 -0.288235 -0.0602248 -1.3 0.252016 -0.842167 0.476701 0.379932
122.86 136.4 163.682 1.82362 0 -3.9 -0.967226 0.173938 0.184987 -0.387917
119.587 133.001 157.926 -0.00901368 0 4.2 -0.520395 0.810544 0.268713 0.999917
119.84 147.599 165.675 0.263422 -0.523684 -0.589737 -0.199142 -0.902326 0.382295 0.0364693
113.089 147.46 157.71 -0.865942 -0.783994 -0.9162 -0.0371685 0.464374 -0.884859 0.530832
122.004 146.868 168.199 0.169649 0 -0.7 -0.932232 -0.318574 0.171621 0.999932
107.427 139.389 158.694 1.85329 0 4.2 0.246406 -0.483297 -0.840064 0.999892
126.726 147.504 157.939 -1.05195 -0.33786 -0.7 0.466591 0.241228 -0.850942 0.999854
115.662 143.392 170.352 -0.0273374 0 -1.3 0.981879 0.189511 0.000578965 -0.999921
122.068 134.128 159.092 0.214823 0 4.2 -0.76711 0.619004 0.16845 -0.661395
128.114 148.264 162.792 0.939726 0 -3.9 0.198724 0.97819 -0.0604344 -0.999924
122.19 142.253 159.186 -1.63925 -0.562237 -3.5 -0.808441 0.271744 -0.52209 0.999896
111.958 151.339 163.622 0.188181 0 4.2 -0.638279 0.511612 -0.575198 -0.9999
119.994 148.065 161.561 1.1345 -0.177729 -0.526851 -0.226546 -0.72297 0.65268 -0.999807
124.827 148.282 158.266 0.127472 -0.75854 -0.7 -0.252521 0.172953 -0.952008 -0.106228
113.659 152.234 159.963 0.269752 0 4.2 -0.0568189 0.960526 0.272328 0.999901
119.487 154.09 163.146 0.139657 0 -0.8 -0.183048 0.844348 -0.503557 0.999909
108.984 148.277 161.133 0.22132 0 3.8 -0.292823 0.955763 0.0277739 -0.999937
117.377 152.962 165.277 -0.193717 -0.919567 -0.8 -0.715203 0.429171 0.551631 0.999891
125.51 151.608 162.088 0.176618 -0.54958 -3.9 0.916682 0.346241 0.199526 -0.999931
124.494 145.691 159.033 0.430973 0 -0.7 -0.000534818 -0.676596 -0.736355 -0.448332
113.061 148.632 158.333 0.0626082 0 4.2 -0.049496 0.0974601 -0.994008 -0.533686
122.101 141.253 164.817 -1.70788 -0.375594 -3.5 -0.994831 -0.0232539 -0.0988414 0.27549
115.371 144.82 163.786 0.914622 0 -1.3 0.876076 0.311105 -0.368381 0.85888
122.665 137.453 162.607 3.20621 0 -3.9 -0.887081 -0.0293566 -0.460679 -0.172267
126.473 145.343 158.963 0.172806 -0.222553 -1.97526 -0.0233686 -0.540324 -0.841132 -0.0910915
112.356 141.181 160.273 0.0955474 0 -1.3 -0.490119 -0.377492 -0.785674 -0.79292
126.646 144.43 159.395 1.9284 0 -3.5285 -0.366579 -0.158253 -0.916829 -0.108588
122.106 153.082 163.141 2.86736 0 -3.9 -0.0210159 0.880127 -0.474273 -0.999947
123.352 144.786 159.374 0.0738183 0 -0.7 -0.128289 -0.440956 -0.888313 0.217278
115.623 144.1 160.547 0.628286 0 -1.3 0.89779 0.283936 0.336681 0.594677
123.125 153.047 161.972 1.55135 0 -3.61966 -0.296578 0.95451 -0.0308641 -0.999936
108.876 138.725 161.574 6.8258 0 4.2 0.397061 -0.89678 0.195267 0.999849
112.123 142.23 159.749 0.497718 0 -1.3 -0.421978 -0.509688 -0.749768 -0.547194
120.774 153.669 163.232 1.08979 0 -0.8 0.377066 0.828335 -0.414345 0.999897
118.663 154.161 160.06 -0.467358 -0.20896 -0.8 -0.314255 0.917827 0.242564 0.582908
125.851 150.03 162.527 -0.173816 -0.163764 -3.9 0.909769 0.344733 0.231256 -0.674849
118.781 148.116 161.922 0.240955 0 -0.4 0.233586 -0.819535 0.523259 -0.737705
118.765 148.523 166.752 0.261967 0 -0.4 0.176648 -0.848106 0.499511 -0.822512
121.33 147.91 159.246 0.138075 0 -0.7 -0.0160333 -0.285576 -0.958222 -0.0807682
111.412 149.762 162.839 0.0291834 0 4.2 -0.598177 0.677153 -0.428542 -0.590068
118.145 152.217 166.095 0.548021 -0.533134 -0.613875 -0.618314 0.473481 0.627299 -0.999919
109.438 147.502 157.108 0.204528 0 3.8 0.353911 0.457018 -0.816016 0.999907
119.98 154.433 160.005 0.346292 0 -0.8 0.109713 0.993942 -0.00650762 0.999846
126.288 148.901 162.964 -0.168175 -0.519857 -3.9 0.634785 0.753121 -0.172793 -0.793658
121.302 153.796 159.292 0.861913 0 -0.930171 0.272698 0.828888 -0.488448 0.999831
116.768 151.929 159.413 2.11322 -0.684914 -0.8 -0.80814 0.588938 0.00786301 0.248686
122.567 143.534 166.011 -1.03702 0 -1.89007 -0.970445 -0.147821 0.190749 -0.679494
122.359 140.971 167.055 0.386609 0 -3.9 -0.972899 0.229109 0.0312386 -0.45852
120.852 148.156 162.161 1.47627 -0.782807 -0.7 -0.582522 -0.713956 0.388503 -0.833426
115.904 139.984 164.697 0.510531 0 -1.3 0.885215 -0.384101 -0.262413 0.748604
111.387 141.022 168.116 2.45311 0 -1.3 -0.515159 -0.661543 0.544951 -0.560465
115.332 140.28 167.072 -0.102999 0 -1.3 0.924307 -0.143534 0.353631 -0.134493
114.514 144.908 166.736 0.921844 0 -1.3 0.95199 0.23491 0.196296 -0.714817
115.458 139.827 162.242 -0.0341318 0 -1.3 0.900797 -0.177583 0.39627 -0.148708
122.743 143.261 161.384 -0.682872 0 -1.08859 -0.974091 0.00368968 0.226125 -0.661958
125.546 147.726 157.654 -0.87194 -0.620175 -0.7 -0.109758 0.215795 -0.97025 0.999881
110.867 139.511 161.708 1.7676 -0.0409952 1.79534 -0.270558 -0.957256 -0.102275 0.212041
117.798 151.577 163.289 2.64071 -0.406193 -0.5667 -0.728623 0.378447 -0.570864 -0.999859
124.921 143.017 159.846 -0.671036 -0.517117 -3.5 0.141547 0.24869 -0.958185 -0.702272
122.84 142.121 162.767 -0.943276 -0.0480125 -3.5 -0.990165 0.126517 -0.0597267 -0.570149
113.719 138.204 163.724 -0.220172 -0.143783 -1.3 0.136245 -0.766569 0.627543 0.660093
107.689 138.672 159.387 1.93017 0 4.2 0.333459 -0.72187 -0.60639 -0.999905
126.175 136.411 156.645 0.544339 0 -3.9 -0.193358 -0.27715 -0.94117 0.999905
120.786 149.417 158.808 1.21849 0 -0.4 0.382515 -0.446508 -0.808896 -0.7495
121.478 133.487 160.12 0.14514 0 4.2 -0.641115 0.699817 -0.315005 -0.534844
124.305 136.176 157.229 1.32083 0 -3.9 -0.199798 -0.0695384 -0.977366 -0.255842
120.268 148.154 159.067 0.909588 0 -0.4 0.332588 -0.544 -0.770357 -0.250146
120.051 147.259 159.669 0.297766 -0.523214 -0.55724 -0.0543167 -0.854812 -0.516087 0.143816
123.526 151.072 157.59 1.4308 0 -3.9 0.0533819 -0.138583 -0.988911 0.795472
115.305 145.552 164.726 1.33698 0 -1.3 0.981559 0.190169 -0.0194294 0.0531405
114.376 148.628 158.07 0.481463 0 4.2 0.110209 -0.0844907 -0.990311 0.269324
114.481 144.714 161.694 1.15725 0 -1.3 0.932718 0.257433 0.25252 -0.999824
127.176 142.217 159.057 0.542719 -0.548549 -3.5 -0.286246 0.19962 -0.937131 -0.103885
122.948 135.571 160.474 0.855375 0 0.168392 -0.82295 0.540456 -0.175101 -0.445732
129.006 146.596 158.785 0.686902 0 -3.9 -0.0140855 -0.0693351 -0.997494 -0.999913
121.08 134.138 165.548 0.230601 0 4.2 -0.746847 0.522361 -0.411533 -0.999941
114.817 144.107 167.731 0.666845 0 -1.3 0.933312 0.207435 -0.293085 -0.377715
114.797 139.119 163.867 0.127567 0 -1.3 0.75817 -0.630193 0.167438 0.0618178
121.672 135.959 166.989 0.40128 0 4.2 -0.553919 0.707094 -0.439536 0.999887
123.781 140.78 158.496 1.12717 0 -3.6658 0.0399136 0.458921 -0.88758 -0.0673538
124.72 134.69 157.106 0.389232 0 3.35213 0.197441 0.301414 -0.932827 -0.999935
116.038 142.51 164.559 0.387725 0 -1.3 0.988675 0.133646 -0.0682618 0.59219
122.723 142.325 167.454 -0.740331 -0.0696138 -3.5 -0.985012 0.171237 -0.0207247 -0.623269
123.647 143.786 159.569 -0.689676 -0.497795 -2.14753 -0.0177892 0.196534 -0.980336 -0.125558
115.603 146.939 163.909 1.0204 0 -0.837741 0.569042 -0.784674 -0.245923 -0.424563
121.446 145.373 161.089 -0.203437 0 -0.7 -0.880467 -0.451224 0.145516 0.376398
115.839 143.016 169.048 0.511072 0 -1.3 0.944034 0.153352 -0.292032 0.560337
121.397 145.736 165.92 -0.211054 0 -0.7 -0.87967 -0.417488 0.227782 0.456339
113.234 152.475 163.295 0.248487 0 4.2 -0.0934836 0.814065 -0.5732 0.999937
121.887 138.756 158.637 4.93182 0 -3.9 -0.99342 -0.0114532 -0.113952 0.999874
115.748 146.36 159.462 0.79501 0 -0.545469 0.747736 -0.531767 -0.397637 0.0571828
115.583 146.597 160.645 0.843592 0 4.2 0.531777 -0.78512 0.31749 -0.285052
110.559 144.819 158.164 1.53748 0 1.5494 0.0694542 -0.478486 -0.875344 -0.563141
122.448 135.488 157.751 0.453084 0 4.2 -0.749444 0.661854 0.0168125 0.137784
123.004 146.642 158.498 0.258758 0 -0.7 -0.398477 -0.156918 -0.903655 0.798306
126.075 142.91 159.601 0.181842 0 -3.5 -0.26878 0.294721 -0.917004 -0.244336
120.307 148.459 166.567 1.26619 -0.559495 -0.7 -0.351489 -0.761113 0.545126 -0.82942
122.803 144.09 162.66 -0.31969 -0.0861421 -1.83378 -0.953343 -0.281164 0.10993 -0.526657
124.257 139.171 157.055 3.17976 0 -3.9 0.07308 0.420839 -0.904187 0.311729
129.352 145.115 158.592 0.724693 0 4.2 -0.429724 0.0539495 -0.901347 -0.999918
120.574 151.571 157.741 1.14715 0 -0.8 0.0870317 0.190731 -0.977777 0.269375
120.797 146.967 166.029 -0.441683 -0.978711 -0.7 -0.723276 -0.524069 0.449692 0.182447
114.979 144.777 158.676 0.751442 0 -1.3 0.833738 -0.0230984 -0.551677 0.275728
113.998 149.968 157.79 0.306506 0 4.2 0.192801 0.0610085 -0.979339 0.840878
114.224 144.251 158.081 0.444833 -0.159417 -1.3 0.316436 -0.223621 -0.92188 0.35538
119.966 133.138 163.921 0.08593 0 4.2 -0.519118 0.779788 0.349924 0.999897
122.059 144.487 165.1 -0.301239 0 -0.7 -0.95291 -0.285041 -0.103508 0.105027
110.287 148.916 158.951 0.195558 0 4.2 -0.495321 0.640555 -0.58681 0.0971524
122.32 139.531 159.549 3.00451 0 -3.9 -0.995118 -0.0348164 0.0923459 -0.0184785
109.129 140.336 158.824 2.27735 0 4.2 0.586632 -0.408255 -0.699422 0.509961
121.77 135.165 161.188 0.387219 0 4.2 -0.662557 0.644542 -0.381554 0.638817
110.222 148.65 161.367 0.128874 0 3.93771 -0.541181 0.828326 0.14491 -0.606835
128.444 139.495 158.285 -0.246736 0 -3.73434 0.151978 0.180083 -0.97184 0.0365844
114.976 142.871 167.478 0.155729 0 -1.3 0.973814 0.218476 -0.0628837 -0.570966
128.53 143.755 158.988 2.88751 -0.00414812 -3.2598 -0.412477 0.0850405 -0.90699 -0.611501
115.067 142.419 162.647 0.155723 0 -1.3 0.977753 0.19995 -0.0634047 -0.65634
123.261 136.492 160.025 1.93515 0 -3.9 -0.973405 0.0169193 0.228463 -0.55993
116.269 140.515 159.959 0.164814 0 -1.3 0.982095 -0.0708255 -0.174568 0.728327
122.251 153.224 158.613 1.0139 0 -3.9 -0.157023 0.518304 -0.840657 -0.999911
118.015 146.925 160.88 0.291238 0 -0.4 0.192852 -0.909885 0.367312 0.529669
115.765 143.854 164.462 0.601341 0 -1.3 0.969509 0.165498 -0.180726 0.510364
121.85 146.683 167.018 0.0084801 -0.234887 -0.7 -0.847188 -0.326239 0.419334 -0.614707
123.091 136.845 164.854 1.79896 0 -3.46177 -0.965082 -0.01779 0.261344 -0.433458
120.052 147.709 164.497 0.481088 -0.546378 -0.564161 -0.347195 -0.771509 -0.533132 -0.0422354
108.591 140.927 158.177 1.04973 -0.0324474 4.2 0.390276 -0.374866 -0.840928 0.546807
112.316 139.469 163.192 0.308247 -0.0473213 -1.3 -0.714825 -0.433048 0.549085 -0.74924
118.216 151.468 161.999 0.332184 -0.272496 -0.424626 -0.920652 0.383694 0.0719657 -0.999865
112.188 139.96 168.023 0.447671 -0.0475155 -1.3 -0.723225 -0.466865 0.508903 -0.69561
112.549 138.435 161.18 -0.317576 0 -1.3 -0.538644 -0.611733 -0.579348 0.582962
114.337 147.309 157.995 -0.471418 -0.0770575 2.98434 0.390237 0.0856685 -0.91672 -0.045067
118.203 152.897 161.23 -0.283495 -0.712754 -0.8 -0.724529 0.534027 0.435744 0.0573385
121.667 147.878 167.808 1.00756 -0.384608 -0.7 -0.772633 -0.430185 0.466883 -0.999878
108.465 139.28 165.238 5.21117 0 4.2 0.60091 -0.760662 -0.24556 -0.999867
111.58 140.476 165.85 1.3142 0 -0.951793 -0.364926 -0.752441 -0.548327 -0.999845
115.58 143.197 165.621 0.0686572 0 -1.3 0.926737 0.184781 0.327131 0.243843
122.687 143.524 163.738 -1.25866 -0.295553 -3.5 -0.935979 0.0450888 -0.349157 -0.661533
116.959 146.797 159.642 0.201307 0 -0.4 0.139783 -0.950446 -0.277692 0.137853
120.497 146.731 160.786 -0.579561 -0.953893 -0.7 -0.646603 -0.720402 0.250849 0.161968
115.194 142.886 158.594 0.453242 0 -1.3 0.418082 -0.0224417 -0.908132 0.436988
122.874 138.215 156.97 7.2106 0 -3.9 -0.548953 -0.0977019 -0.830124 0.923141
122.115 135.572 162.966 0.627421 0 4.2 -0.77406 0.599104 0.204708 0.31937
115.667 142.75 160.791 0.0358589 0 -1.3 0.924337 0.178402 0.337304 0.0200766
116.452 150.776 160.526 0.457202 -0.241008 2.91874 -0.233791 0.835116 0.497919 -0.55704
123.614 149.252 158.257 7.66514 0 -0.82877 -0.107007 -0.257048 -0.960456 0.20551
114.422 146.134 161.867 2.85466 0 0.512475 0.916517 -0.330152 0.225822 -0.999866
116.706 148.87 158.103 1.123 -0.224616 -0.4 -0.368777 -0.0454763 -0.928405 0.188379
119.435 148.313 158.038 -0.122636 -0.0637146 -0.4 0.393207 -0.693074 -0.604182 0.363161
115.499 141.477 163.221 0.573114 0 -1.3 0.948388 0.0377828 -0.314853 0.145253
121.129 146.497 164.984 -0.944671 -0.554854 -0.7 -0.789918 -0.565114 -0.238065 0.152835
108.322 145.527 157.277 0.214911 0 3.8 0.0132303 -0.602318 -0.798147 -0.99991
117.393 153.737 159.892 -0.300171 -0.977404 -0.8 -0.71665 0.670241 0.192844 0.999903
124.424 146.658 158.176 -0.508157 -0.332769 -0.7 -0.237731 -0.221351 -0.945774 0.380674
112.268 140.524 164.394 0.874601 0 -1.3 -0.675575 -0.737246 0.00818695 -0.999843
121.781 135.018 165.395 0.364496 0 4.2 -0.667243 0.632797 -0.392881 0.0653664
112.789 151.102 157.911 0.241765 0 4.2 -0.368855 0.412115 -0.833131 0.999874
113.531 137.293 162.407 0.345272 -0.311424 -1.3 -0.130368 -0.99145 0.00548377 0.999913
117.61 148.062 158.069 1.08844 -0.662384 -0.4 -0.0938329 -0.608032 -0.788348 0.322136
122.326 142.964 159.967 -1.60189 0 -3.5 -0.887146 0.358183 -0.290992 0.199215
122.159 138.185 167.68 2.972 0 -3.9 -0.887661 -0.224617 -0.402002 -0.999876
122.21 137.96 163.608 3.45223 0 -3.9 -0.972713 -0.230172 0.029147 0.523057
115.955 141.012 161.327 -0.135539 0 -1.3 0.933433 0.127864 0.335192 0.551286
122.364 137.604 158.778 3.33545 0 -3.9 -0.957121 -0.272905 0.0971765 0.39705
115.104 150.604 162.079 -0.36076 -0.0161807 4.2 0.320658 0.94345 0.0841472 -0.766061
127.49 146.775 158.573 -0.328775 -0.609397 -1.58305 0.281009 -0.136664 -0.949925 -0.0718595
122.895 135.625 158.718 0.969347 0 -0.472258 -0.961788 0.228203 0.151288 -0.400959
121.016 153.007 161.145 0.728767 -0.023622 -0.8 0.321749 0.857878 0.400654 -0.627726
120.103 132.674 159.247 0.0063285 0 4.2 -0.466096 0.879718 0.0940717 -0.999909
114.687 151.961 165.197 0.271777 0 4.2 0.200584 0.85256 0.482606 -0.999805
119.98 153.792 158.351 0.321344 0 -0.8 0.11041 0.622477 -0.774811 0.99986
122.442 134.574 155.973 0.0442325 0 4.2 -0.178451 0.745527 -0.642141 0.999935
122.396 140.858 161.838 -0.597615 0 -3.73657 -0.975155 0.143142 0.169064 -0.248702
122.394 139.964 158.142 2.97195 0 -3.9 -0.757649 0.444543 -0.477859 0.484103
128.069 145.059 158.969 1.39074 0 -3.9 -0.13706 -0.173271 -0.97529 -0.229571
121.004 133.557 164.407 0.191078 0 4.2 -0.696918 0.715898 0.0423738 -0.999842
118.195 147.001 159.043 0.427689 0 -0.4 0.167661 -0.822106 -0.544087 0.722596
115.584 140.627 158.791 0.72626 0 -1.3 0.559213 -0.192947 -0.806258 0.7458
114.661 138.525 166.388 5.55863 -0.656909 -1.3 0.574933 -0.81791 0.0217998 0.487941
121.999 142.854 164.709 -1.8991 -0.0805648 -3.5 -0.995464 0.0940623 -0.0142891 0.495803
112.522 149.79 158.042 0.213211 0 4.2 -0.234542 -0.0897787 -0.967951 0.351529
113.686 137.813 167.166 2.17868 -0.672445 -1.3 -0.0108786 -0.999476 0.0304831 0.999905
114.404 139.118 159.308 0.263281 0 -1.3 -0.0707434 -0.639104 -0.76586 0.823561
126.866 148.463 162.07 0.414397 -0.241121 -3.9 0.441639 0.836065 0.325502 -0.999878
122.059 144.816 166.601 -0.136767 0 -0.7 -0.918656 -0.294912 0.262867 0.228503
117.983 151.44 167.02 -0.271418 0 -0.4 -0.575539 0.715035 0.396836 -0.99992
123.373 139.72 157.132 4.00942 0 -3.9 -0.207117 0.532659 -0.820595 0.999869
129.474 140.507 158.127 -1.49486 -0.556931 -3.3227 -0.0477087 -0.136937 -0.98943 0.999892
122.571 150.18 158.023 1.54186 0 -3.9 -0.103935 -0.446527 -0.888713 0.29504
117.678 153.892 163.702 -0.7789 -0.932362 -0.8 -0.641541 0.628648 -0.439575 0.999904
110.284 149.276 163.47 0.143754 0 4.16375 -0.537388 0.78414 -0.310385 -0.9999
109.43 148.652 159.794 0.227005 0 3.8 -0.569451 0.816952 -0.0911871 0.99984
109.579 139.361 160.538 8.15337 0 4.2 0.617946 -0.73309 -0.284116 0.308195
114.91 143.872 166.639 0.345007 0 -1.3 0.922008 0.247803 0.29748 -0.367739
117.787 149.072 157.305 -1.09885 -0.709274 -0.4 -0.520819 -0.166763 -0.83722 0.397594
119.499 148.536 162.665 0.0156492 0 -0.4 0.0478656 -0.988883 0.140778 -0.684249
116.8 147.796 162.72 2.67289 0 -0.4 0.203485 -0.971757 -0.119506 -0.619436
114.513 137.803 162.404 3.98061 -0.642623 -1.3 0.609107 -0.779746 0.14486 0.590724
123.494 152.5 157.821 0.943913 0 -3.9 -0.0602002 0.278172 -0.958643 0.999902
122.089 141.641 160.63 -1.32546 -0.144029 -3.5 -0.989282 0.0930798 0.112508 0.713566
122.162 140.949 168.326 1.72803 -0.0707302 -3.85976 -0.938646 0.240648 -0.247048 -0.99992
111.134 140.782 160.918 1.96828 0 -1.3 0.00701071 -0.515918 -0.856609 -0.461858
122.361 136.724 167.406 0.946339 0 2.20729 -0.787039 0.283837 -0.547728 -0.999891
111.999 151.176 159.742 0.221675 0 4.2 -0.667927 0.744023 0.0174268 0.458246
117.816 147.874 162.259 0.171616 0 -0.4 0.283983 -0.948556 0.139985 -0.221065
117.797 148.295 167.089 0.186164 0 -0.4 0.162891 -0.963922 0.210524 -0.278777
112.637 150.593 161.976 0.0578341 0 4.2 -0.680283 0.725016 -0.107549 -0.425218
115.62 146.681 164.955 0.828512 0 2.70245 0.702009 -0.675136 0.226659 -0.0906839
121.87 153.462 160.128 1.1697 0 -0.8 0.25294 0.876348 0.409922 0.999828
116.924 150.308 162.305 -0.571314 -0.221002 2.19839 -0.270642 0.959167 -0.0821701 -0.999841
125.63 140.899 159.016 0.117398 0 -3.5 -0.0234549 0.339322 -0.940378 -0.634072
114.322 146.41 167.18 0.610041 0 1.37765 0.971816 -0.233002 0.0358372 -0.788282
122.137 140.023 160.708 -1.97365 -0.708728 -3.5 -0.99294 -0.116115 -0.0242444 0.382931
122.015 140.38 165.538 -1.50181 -0.711613 -3.5 -0.999128 0.0401869 -0.0113462 0.450851
114.514 145.583 162.999 0.488157 0 -1.3 0.947184 -0.0731287 -0.31224 -0.578961
122.957 136.631 157.723 1.85308 0 0.109938 -0.723426 -0.0163627 -0.690208 0.13253
121.988 139.629 166.787 4.3866 0 -3.9 -0.978667 -0.148097 -0.1424 0.307698
122.12 139.267 161.958 4.90593 0 -3.68163 -0.993372 -0.0974618 -0.0609399 0.463084
122.719 136.393 162.41 1.51686 0 0.741687 -0.918846 0.32907 -0.217796 0.0443799
114.554 145.599 167.94 0.844044 0 -1.3 0.90751 -0.0524926 -0.416738 -0.639811
121.678 147.287 163.399 0.503993 -0.303041 -0.7 -0.83774 -0.50725 -0.202209 -0.530943
123.159 153.421 160.666 0.974065 -0.0066999 -1.9176 -0.173974 0.934694 0.309968 -0.99991
117.511 151.841 160.644 0.959014 -0.980557 -0.8 -0.790554 0.309174 0.528617 -0.146512
111.072 142.03 160.096 1.31985 0 3.8 0.132456 -0.622509 -0.771322 -0.639191
113.273 139.414 169.289 0.211917 -0.0918096 -1.3 -0.49125 -0.66529 0.562195 0.999899
122.671 145.3 168.241 -0.208762 0 -0.7 -0.930435 -0.193024 0.3115 -0.999898
110.66 146.519 157.432 0.207674 0 3.8 0.292191 0.0810156 -0.952922 0.193722
121.925 149.388 159.006 2.55022 0 -1.83505 -0.125361 -0.449844 -0.884265 -0.999853
112.383 138.657 166.299 -0.260608 0 -1.3 -0.583342 -0.726351 -0.363492 0.504213
113.381 138.878 164.401 0.282002 -0.142896 -1.3 -0.292282 -0.947424 0.130222 -0.0238027
113.7 138.18 160.756 0.900066 -0.206795 -1.3 -0.195113 -0.763944 -0.615078 0.485533
113.704 143.309 158.279 0.640274 0 -1.3 -0.0844575 -0.340851 -0.936316 0.489338
124.931 139.991 158.496 3.35721 0 -3.9 0.206525 0.611688 -0.763665 -0.894354
116.78 149.981 158.451 0.55206 0 -0.4 -0.418207 0.426362 -0.802071 -0.10999
112.471 138.488 167.665 -1.1595 -0.599432 -1.3 -0.571665 -0.709562 0.411972 0.599851
122.181 144.13 160.267 -0.193023 0 -0.7 -0.866468 -0.404239 -0.292958 0.258792
118.233 152.995 162.688 0.291059 -0.845638 -0.8 -0.736782 0.451143 -0.503609 0.0620106
118.743 151.089 157.689 0.100603 -0.491273 -0.46013 -0.369362 0.415577 -0.831184 0.16651
115.133 140.706 167.969 0.0673531 0 -1.3 0.973917 -0.217198 -0.065653 -0.254734
125.378 144.864 159.829 0.581982 0 -0.918443 -0.0246786 -0.444859 -0.89526 -0.99982
115.253 140.25 163.137 0.0321838 0 -1.3 0.986437 -0.15975 -0.0377044 -0.218036
116.797 150.535 163.295 0.410283 0 -0.4 -0.232678 0.734385 -0.637604 -0.999903
122.432 145.472 163.392 0.0756305 0 -0.7 -0.946157 -0.317564 -0.0627637 -0.534796
112.542 138.072 162.864 -0.76333 -0.62597 -1.3 -0.633903 -0.671521 0.3837 0.566998
121.686 152.61 162.284 2.92603 0 -2.2105 0.077171 0.996325 -0.0371714 -0.999867
111.502 140.517 163.285 2.52482 0 -1.3 -0.356052 -0.828073 0.433037 -0.675522
107.725 144.635 158.331 0.124337 0 3.8 -0.135765 -0.10203 -0.985473 -0.999927
113.641 151.387 162.018 0.143355 0 4.2 0.023539 0.93303 -0.359029 -0.0482331
121.013 150.232 158.15 1.11363 0 -3.44057 0.32732 -0.429946 -0.841432 -0.0425407
129.738 141.81 158.027 -0.838781 0 -3.5 -0.328062 0.127775 -0.935975 0.999842
115.631 144.723 169.715 0.627611 0 -1.3 0.959578 0.134209 -0.247382 0.999888
122.187 139.269 164.416 4.66074 0 -3.9 -0.975692 -0.199693 0.0902609 0.280893
114.745 139.354 169.452 0.714801 0 -1.3 0.741525 -0.650145 0.165686 0.999881
115.895 147.294 158.588 4.70816 0 -0.4 0.153394 -0.381916 -0.911378 0.22534
124.782 141.733 159.146 -1.0195 0 -3.5 0.274622 0.358604 -0.892181 -0.170447
111.75 145.48 157.815 -0.175758 -0.25344 -1.3 -0.0570231 -0.312286 -0.948275 -0.0237241
123.115 138.237 165.993 2.21816 0 -3.9 -0.937397 -0.32653 -0.121096 -0.732188
126.032 150.108 164.265 1.36311 0 -3.9 0.900456 0.383815 -0.204609 -0.999917
125.728 138.635 156.69 0.752723 0 -3.9 0.0646895 0.521103 -0.851039 0.689754
115.375 149.526 158.488 0.950136 0 2.89123 0.20823 0.225505 -0.951729 -0.166826
115.779 150.812 166.826 -1.19581 -0.0010758 4.2 0.0738108 0.89393 0.442088 -0.999892
122.664 143.655 168.221 -1.37763 -0.160455 -3.5 -0.99811 -0.0613227 -0.00400974 -0.999877
125.474 149.153 158.689 0.684285 -0.167705 -1.90399 0.443126 0.304301 -0.843232 -0.0697884
116.17 141.088 165.243 0.0898198 0 -1.3 0.996127 0.00950849 0.087408 0.656405
109.993 140.338 160.449 4.9417 0 4.2 0.672184 -0.453115 -0.585539 -0.658286
121.734 146.754 162.202 0.122909 -0.831445 -0.7 -0.80947 -0.363215 0.461338 -0.728111
111.529 149.715 161.573 0.0645933 0 4.2 -0.567302 0.814309 0.122753 -0.441794
120.137 148.423 163.769 1.46851 0 -0.4 0.0728278 -0.886227 -0.45749 -0.999834
110.738 140.022 166.538 2.10497 0 3.57035 -0.301002 -0.93093 0.206802 0.184651
120.716 134.382 162.264 0.229069 0 4.2 -0.654084 0.753784 0.0631229 0.296344
115.938 140.512 170.158 0.302973 0 -1.3 0.899061 -0.374385 -0.226993 0.999917
113.655 146.28 157.151 -1.63833 -0.098968 -1.3 0.168094 0.073865 -0.983 0.999888
117.251 147.206 164.469 0.174821 0 -0.4 0.188022 -0.969962 -0.154342 0.191224
122.792 136.008 165.596 0.891513 0 4.2 -0.790646 0.577308 -0.203948 -0.522643
126.812 139.361 158.126 0.597726 0 -3.9 0.14575 0.622344 -0.769054 -0.356135
111.732 150.272 158.543 0.208743 0 4.2 -0.603808 0.422186 -0.676147 0.43034
109.52 140.614 163.55 6.09393 0 4.2 0.490915 -0.855231 0.166081 -0.501185
118.566 153.727 158.664 -0.875796 -0.481217 -0.8 -0.316783 0.705634 -0.633821 0.700317
122.369 148.191 159.083 1.81018 0 -0.7 -0.303602 -0.0763988 -0.949731 -0.406626
116.84 151.408 165.42 0.489793 -0.0957672 3.72945 -0.35999 0.760655 0.540196 -0.585998
119.84 132.363 160.85 -0.0926357 0 4.2 -0.626041 0.645391 -0.437656 -0.999904
107.78 139.38 163.233 5.26063 0 4.2 0.373853 -0.852787 0.364674 -0.999899
115.288 145.369 160.064 1.30659 0 -1.04991 0.976167 -0.0451321 0.212278 -0.0851746
127.222 140.271 158.606 -0.0319028 -0.141158 -3.58829 -0.132965 0.277266 -0.951548 -0.309155
117.179 153.158 159.095 -0.513005 -0.777446 -0.8 -0.812763 0.344601 -0.469751 0.793861
115.982 142.535 159.693 0.265795 0 -1.3 0.970548 0.165422 -0.175135 0.543415
110.226 141.179 164.841 6.54112 0 4.2 0.0605245 -0.991455 -0.115559 -0.999906
115.234 138.409 160.781 1.06178 -0.0494603 -1.3 0.554518 -0.810048 -0.190609 0.638931
110.506 143.126 158.777 2.21504 0 3.8 0.260415 -0.445965 -0.856329 -0.118629
127.618 149.156 160.645 0.866828 0 -3.9 0.68771 0.715079 0.125364 0.99988
119.476 148.787 168.066 0.551704 0 -0.4 0.174407 -0.982798 0.0607503 -0.999906
114.284 151.947 158.674 0.309791 0 4.2 0.460978 0.731604 -0.502249 0.999851
113.145 140.965 159.408 -0.0303572 0 -1.3 -0.60394 -0.305439 -0.736182 0.308518
112.606 140.027 160.344 0.094535 0 -1.3 -0.535604 -0.348258 -0.769314 0.244107
123.285 137.85 161.148 2.38316 0 -3.9 -0.959175 -0.277493 -0.0546046 -0.778197
121.386 146.19 159.735 -0.839904 -0.187621 -0.7 -0.566256 -0.438034 -0.698198 0.289544
109.784 141.408 159.222 1.87891 0 4.2 0.657863 -0.376766 -0.652122 -0.0487411
115.179 147.217 162.306 0.495441 0 0.145886 0.503983 -0.860776 0.0711786 -0.999788
115.147 147.669 167.137 0.502152 0 0.0969585 0.642792 -0.766023 -0.00522816 -0.999828
108.782 142.537 157.839 -0.566478 -0.0715577 4.2 0.371831 -0.063789 -0.926106 0.338423
119.769 153.554 161.69 0.494148 0 -0.8 0.0863076 0.984459 0.152942 0.061808
125.872 151.176 159.497 1.01903 0 -3.9 0.882884 0.217726 -0.416068 0.999868
116.217 152.087 164.188 0.754363 -0.622155 -0.8 -0.313635 0.832038 -0.457544 0.156269
114.83 143.728 162.326 0.565911 0 -1.3 0.966085 0.253177 -0.0508126 -0.289961
115.681 151.207 159.724 0.564124 0 4.2 0.0375139 0.957126 -0.287233 0.0850466
126.109 146.129 157.958 -1.09006 -0.230642 -0.7 0.0704197 -0.536446 -0.840991 0.999855
110.336 140.622 165.722 5.81926 0 4.2 0.428121 -0.76866 -0.475262 -0.446768
116.344 148.194 167.314 1.17057 0 1.88692 0.232175 -0.972436 -0.0215172 -0.844146
3 425 130 315
3 78 130 425
3 130 310 315
3 315 363 425
3 310 130 78
3 78 425 77
3 315 310 60
3 315 420 363
3 363 426 425
3 310 78 273
3 425 167 77
3 273 78 77
3 310 252 60
3 60 420 315
3 363 420 330
3 426 363 263
3 425 426 160
3 310 273 418
3 425 160 167
3 28 77 167
3 273 77 364
3 418 252 310
3 60 252 55
3 60 55 420
3 420 80 330
3 290 363 330
3 263 363 290
3 426 263 21
3 334 160 426
3 418 273 237
3 167 160 356
3 28 364 77
3 167 356 28
3 239 273 364
3 418 295 252
3 55 252 295
3 420 55 80
3 330 80 212
3 290 330 195
3 290 376 263
3 191 21 263
3 21 334 426
3 356 160 334
3 273 239 237
3 237 415 418
3 132 364 28
3 28 356 421
3 239 364 87
3 295 418 276
3 295 188 55
3 55 188 80
3 188 212 80
3 195 330 212
3 376 290 195
3 263 376 191
3 191 334 21
3 356 334 429
3 34 237 239
3 237 225 415
3 164 418 415
3 132 87 364
3 28 421 132
3 356 429 421
3 87 120 239
3 418 164 276
3 276 65 295
3 295 373 188
3 373 212 188
3 195 212 362
3 376 195 362
3 260 191 376
3 397 334 191
3 397 429 334
3 34 225 237
3 34 239 120
3 225 226 415
3 206 164 415
3 87 132 388
3 227 132 421
3 432 421 429
3 120 87 388
3 436 276 164
3 250 65 276
3 373 295 65
3 212 373 184
3 212 125 362
3 362 260 376
3 260 378 191
3 191 325 397
3 397 244 429
3 34 264 225
3 404 34 120
3 271 226 225
3 279 415 226
3 206 436 164
3 415 279 206
3 227 388 132
3 227 421 106
3 421 432 106
3 429 259 432
3 120 388 404
3 436 250 276
3 250 282 65
3 373 65 282
3 373 396 184
3 125 212 184
3 125 311 362
3 287 260 362
3 378 260 287
3 191 378 27
3 114 325 191
3 325 244 397
3 429 244 259
3 404 264 34
3 225 264 386
3 271 254 226
3 386 271 225
3 279 226 430
3 347 436 206
3 347 206 279
3 227 36 388
3 106 284 227
3 379 106 432
3 432 259 108
3 404 388 123
3 255 250 436
3 255 282 250
3 396 373 282
3 56 184 396
3 56 125 184
3 56 311 125
3 362 311 133
3 287 362 361
3 378 287 419
3 378 409 27
3 191 27 114
3 325 114 166
3 244 325 0
3 140 259 244
3 404 138 264
3 264 205 386
3 112 254 271
3 430 226 254
3 271 386 291
3 430 347 279
3 347 157 436
3 36 227 284
3 388 36 359
3 106 379 284
3 432 117 379
3 82 108 259
3 58 432 108
3 123 388 359
3 404 123 138
3 157 255 436
3 216 282 255
3 396 282 216
3 396 186 56
3 311 56 81
3 314 133 311
3 133 361 362
3 268 287 361
3 419 287 268
3 419 409 378
3 114 27 409
3 414 166 114
3 42 325 166
3 0 325 196
3 244 0 196
3 259 140 82
3 244 196 140
3 138 155 264
3 205 264 155
3 386 205 392
3 254 112 59
3 271 309 112
3 254 337 430
3 291 386 280
3 271 291 309
3 219 347 430
3 347 204 157
3 36 284 97
3 359 36 97
3 58 117 432
3 79 123 359
3 138 123 7
3 157 204 255
3 269 216 255
3 216 269 396
3 396 371 186
3 56 186 81
3 81 134 311
3 314 361 133
3 314 311 134
3 401 268 361
3 268 439 419
3 419 439 409
3 414 114 409
3 166 414 126
3 196 325 42
3 42 166 126
3 138 7 155
3 313 205 155
3 205 238 392
3 392 280 386
3 59 112 202
3 254 59 171
3 112 309 202
3 337 254 171
3 430 337 329
3 291 280 327
3 309 291 281
3 219 340 347
3 219 430 405
3 347 340 204
3 176 359 97
3 79 7 123
3 176 79 359
3 255 204 74
3 255 74 269
3 396 269 66
3 371 396 66
3 371 385 186
3 186 385 81
3 134 81 385
3 314 367 361
3 134 367 314
3 268 401 439
3 361 367 401
3 409 439 267
3 414 409 267
3 155 7 90
3 313 238 205
3 90 313 155
3 424 392 238
3 392 366 280
3 59 202 272
3 59 147 171
3 201 202 309
3 328 337 171
3 337 405 329
3 405 430 329
3 366 327 280
3 281 291 327
3 201 309 281
3 340 219 405
3 340 2 204
3 79 90 7
3 111 79 176
3 204 2 74
3 269 74 326
3 248 66 269
3 371 66 18
3 385 371 403
3 134 385 357
3 367 134 357
3 439 401 131
3 262 401 367
3 267 439 131
3 238 313 289
3 313 90 408
3 392 424 437
3 424 238 289
3 392 437 366
3 272 202 428
3 147 59 272
3 171 147 328
3 173 202 201
3 400 337 328
3 400 405 337
3 370 327 366
3 281 327 57
3 281 198 201
3 405 124 340
3 41 2 340
3 242 90 79
3 242 79 111
3 187 74 2
3 326 74 187
3 326 248 269
3 248 18 66
3 371 18 31
3 371 31 403
3 357 262 367
3 9 131 401
3 262 185 401
3 313 408 289
3 242 408 90
3 437 424 101
3 424 289 8
3 67 366 437
3 173 428 202
3 272 428 220
3 147 272 398
3 328 147 183
3 198 173 201
3 328 69 400
3 115 405 400
3 95 327 370
3 370 366 67
3 95 57 327
3 121 281 57
3 281 381 198
3 405 3 124
3 340 124 431
3 41 344 2
3 41 340 431
3 111 324 242
3 2 344 187
3 187 211 326
3 211 248 326
3 248 221 18
3 31 18 221
3 73 403 31
3 119 262 357
3 401 54 9
3 185 262 119
3 185 54 401
3 289 408 336
3 408 242 336
3 101 424 149
3 437 101 297
3 8 289 336
3 424 8 149
3 180 67 437
3 173 411 428
3 368 220 428
3 398 272 220
3 183 147 398
3 328 183 69
3 360 173 198
3 400 69 258
3 115 3 405
3 115 400 258
3 95 370 99
3 22 370 67
3 121 57 95
3 281 121 381
3 381 360 198
3 338 124 3
3 124 440 431
3 431 344 41
3 111 10 324
3 324 336 242
3 352 187 344
3 211 187 352
3 211 221 248
3 142 31 221
3 73 31 142
3 119 100 185
3 185 129 54
3 149 113 101
3 380 297 101
3 297 277 437
3 149 8 336
3 67 180 417
3 437 277 180
3 360 411 173
3 229 428 411
3 220 368 76
3 163 368 428
3 76 398 220
3 353 183 398
3 353 69 183
3 258 69 353
3 115 17 3
3 137 115 258
3 99 370 235
3 95 99 121
3 22 40 370
3 67 417 22
3 121 99 381
3 321 360 381
3 124 338 440
3 17 338 3
3 92 431 440
3 352 344 431
3 324 71 336
3 352 75 211
3 383 221 211
3 142 221 383
3 185 100 129
3 149 336 113
3 101 113 380
3 64 297 380
3 342 277 297
3 417 180 355
3 355 180 277
3 360 278 411
3 229 163 428
3 411 286 229
3 76 368 232
3 368 163 218
3 375 398 76
3 375 353 398
3 283 258 353
3 17 115 137
3 137 258 283
3 235 370 40
3 381 99 235
3 410 40 22
3 410 22 417
3 360 321 278
3 68 321 381
3 51 440 338
3 338 17 172
3 70 431 92
3 92 440 51
3 70 352 431
3 71 324 246
3 71 399 336
3 352 70 75
3 75 383 211
3 339 113 336
3 339 380 113
3 64 342 297
3 380 127 64
3 342 48 277
3 355 285 417
3 277 48 355
3 148 411 278
3 229 286 163
3 148 286 411
3 189 232 368
3 232 375 76
3 218 163 372
3 368 218 292
3 353 375 283
3 172 17 137
3 236 137 283
3 303 235 40
3 68 381 235
3 303 40 410
3 285 410 417
3 278 321 24
3 68 203 321
3 338 25 51
3 423 338 172
3 324 151 246
3 246 399 71
3 399 339 336
3 339 15 380
3 374 342 64
3 127 380 223
3 64 127 435
3 261 48 342
3 355 265 285
3 261 355 48
3 278 395 148
3 154 163 286
3 148 190 286
3 189 194 232
3 189 368 292
3 232 270 375
3 372 163 154
3 372 193 218
3 292 218 45
3 375 241 283
3 137 231 172
3 231 137 236
3 236 283 222
3 235 303 20
3 20 68 235
3 177 303 410
3 285 169 410
3 321 203 24
3 278 24 395
3 68 331 203
3 423 25 338
3 172 231 423
3 53 246 151
3 53 399 246
3 174 339 399
3 339 146 15
3 223 380 15
3 192 342 374
3 64 435 374
3 127 223 12
3 127 12 435
3 192 261 342
3 261 265 355
3 169 285 265
3 148 395 190
3 438 154 286
3 190 438 286
3 194 189 332
3 232 194 270
3 292 332 189
3 241 375 270
3 372 154 438
3 372 14 193
3 218 193 387
3 45 218 387
3 45 145 292
3 283 241 222
3 266 231 236
3 256 236 222
3 179 20 303
3 253 68 20
3 177 179 303
3 177 410 169
3 83 24 203
3 24 110 395
3 68 253 331
3 83 203 331
3 231 50 423
3 53 323 399
3 174 146 339
3 174 399 323
3 435 192 374
3 12 302 435
3 192 369 261
3 369 265 261
3 169 265 433
3 141 190 395
3 141 438 190
3 305 194 332
3 194 26 270
3 292 145 332
3 312 241 270
3 372 438 159
3 161 14 372
3 193 14 230
3 230 387 193
3 45 387 88
3 45 88 145
3 222 241 317
3 266 50 231
3 236 256 266
3 317 256 222
3 253 20 179
3 341 179 177
3 177 169 433
3 83 110 24
3 395 110 434
3 35 146 174
3 35 174 323
3 369 192 435
3 412 435 302
3 369 433 265
3 141 395 91
3 438 141 298
3 194 305 5
3 345 305 332
3 194 5 26
3 26 312 270
3 145 107 332
3 181 241 312
3 159 438 298
3 372 159 161
3 161 230 14
3 387 230 343
3 88 387 214
3 107 145 88
3 181 317 241
3 139 266 256
3 358 256 317
3 341 177 433
3 86 395 434
3 369 435 322
3 412 152 435
3 393 412 302
3 369 150 433
3 86 91 395
3 298 141 91
3 5 305 350
3 350 305 345
3 107 345 332
3 29 26 5
3 26 156 312
3 181 312 217
3 159 298 307
3 161 159 307
3 161 207 230
3 207 343 230
3 387 343 365
3 387 365 214
3 107 88 214
3 181 394 317
3 358 139 256
3 358 317 394
3 341 433 300
3 422 86 434
3 322 435 152
3 322 150 369
3 412 175 152
3 63 412 393
3 1 393 302
3 168 433 150
3 30 91 86
3 298 91 118
3 29 5 350
3 19 350 345
3 243 345 107
3 156 26 29
3 312 156 103
3 217 312 103
3 217 394 181
3 307 298 209
3 307 249 161
3 161 249 207
3 416 343 207
3 343 416 365
3 319 214 365
3 107 214 306
3 377 300 433
3 377 341 300
3 30 86 422
3 39 422 434
3 175 412 318
3 63 318 412
3 377 433 168
3 118 91 30
3 209 298 118
3 384 29 350
3 19 427 350
3 19 345 243
3 243 107 306
3 29 346 156
3 156 346 103
3 182 217 103
3 217 11 394
3 209 234 307
3 234 249 307
3 249 4 207
3 207 382 416
3 365 416 407
3 306 214 319
3 233 319 365
3 341 377 354
3 39 170 422
3 434 109 39
3 162 377 168
3 384 346 29
3 350 294 384
3 296 427 19
3 294 350 427
3 243 224 19
3 243 306 224
3 182 103 346
3 217 182 333
3 217 333 11
3 234 96 249
3 249 102 4
3 4 382 207
3 382 320 416
3 416 247 407
3 391 365 407
3 306 319 224
3 233 274 319
3 233 365 391
3 377 165 354
3 39 153 170
3 422 170 316
3 109 153 39
3 162 165 377
3 384 349 346
3 294 16 384
3 427 296 251
3 296 19 224
3 294 427 158
3 182 346 349
3 37 333 182
3 96 102 249
3 102 382 4
3 247 416 320
3 104 407 247
3 391 407 84
3 319 274 224
3 274 233 32
3 32 233 391
3 44 170 153
3 178 316 170
3 316 62 422
3 389 349 384
3 16 294 257
3 389 384 16
3 296 299 251
3 72 427 251
3 274 296 224
3 427 72 158
3 294 158 351
3 37 182 349
3 320 98 247
3 38 407 104
3 247 98 104
3 84 407 38
3 52 391 84
3 348 274 32
3 391 52 32
3 44 390 170
3 144 316 178
3 390 178 170
3 144 62 316
3 293 349 389
3 294 135 257
3 257 389 16
3 299 296 348
3 208 251 299
3 208 72 251
3 296 274 348
3 351 158 72
3 135 294 351
3 349 293 37
3 197 52 84
3 32 200 348
3 32 52 200
3 33 144 178
3 49 178 390
3 389 335 293
3 406 257 135
3 389 257 23
3 299 348 228
3 208 299 143
3 245 72 208
3 351 72 245
3 135 351 275
3 52 197 200
3 200 47 348
3 178 49 33
3 389 23 335
3 406 23 257
3 406 135 6
3 47 228 348
3 143 299 228
3 61 208 143
3 245 208 61
3 275 351 245
3 6 135 275
3 200 197 85
3 200 215 47
3 335 23 406
3 288 406 6
3 47 43 228
3 94 143 228
3 61 143 199
3 199 245 61
3 402 275 245
3 275 402 6
3 200 85 215
3 47 215 13
3 213 335 406
3 213 406 288
3 6 308 288
3 304 43 47
3 105 228 43
3 94 93 143
3 105 94 228
3 199 143 93
3 245 199 402
3 6 402 308
3 13 304 47
3 213 288 128
3 210 288 308
3 43 304 105
3 93 94 136
3 94 105 122
3 301 199 93
3 402 199 116
3 308 402 240
3 288 210 128
3 94 122 136
3 136 301 93
3 199 301 413
3 199 413 116
3 402 116 89
3 89 240 402
3 116 413 46
3 89 116 46
