ply
format ascii 1.0
comment Generated by PyMesh
element vertex 248
property float x
property float y
property float z
property float charge
property float hbond
property float hphob
property float nx
property float ny
property float nz
property float si
element face 438
property list uchar int vertex_indices
end_header
-38.831 -23.598 0.132 -0.408403 -0.484594 -2.15024 0.00401971 -0.974846 -0.222845 0.999907
-37.3275 -26.663 -13.8235 0.452018 0 3.8 -0.0676267 -0.975407 0.209781 0.0992879
-34.5015 -20.821 -9.3965 0.0955616 0 -4.5 0.19808 -0.553777 0.808762 0.528945
-28.681 -25.1235 -12.071 0.785897 0 -4.5 0.396883 -0.731955 -0.553829 -0.733102
-37.2715 -26.378 -6.57 -0.312543 -0.0636903 2.03662 0.477981 0.872896 0.0979127 0.999982
-35.065 -25.823 2.006 0.114565 0 -3.5 -0.504827 -0.859941 -0.0751717 0.999903
-29.104 -25.377 -15.315 0.415039 0 -4.5 0.447718 0.502266 0.739782 0.708592
-35.0665 -23.923 -10.699 -0.803379 -0.213931 -3.5 -0.476376 0.117971 0.871291 0.702083
-29.706 -20.153 -6.633 0.209789 0 -0.9 0.207807 -0.960414 0.185531 0.561584
-34.25 -26.3495 1.757 -0.423954 -0.0614258 -3.5 -0.719864 -0.689629 -0.0787911 0.999921
-33.897 -21.3498 -4.40075 1.39341 0 -4.5 -0.389569 -0.635906 -0.666228 -0.713718
-23.8365 -24.4865 -6.96525 0.403321 0 -0.4 -0.361111 -0.885649 -0.291932 -0.118389
-36.669 -25.3263 -5.8825 -0.627844 -0.622499 -3.5 0.936795 -0.0447275 -0.347007 -0.690332
-35.439 -26.79 -12.338 0.564543 0 3.8 -0.188191 -0.981866 0.022875 -0.116148
-31.7925 -25.4398 -2.20425 0.855594 -0.0307159 -1.18006 -0.0331358 0.0743141 -0.996684 -0.639109
-32.044 -24.2995 -10.484 -0.782892 -0.0675142 -0.9 0.202994 -0.540365 0.816578 0.561632
-28.468 -26.7125 -1.158 0.664467 0 1.9 0.36782 -0.0583045 -0.928067 0.999901
-29.536 -26.109 -1.702 0.854709 0 1.9 0.226672 -0.0806069 -0.97063 -0.39401
-28.004 -21.399 -7.9525 1.3278 0 -0.9 -0.369704 -0.371312 0.851732 0.999832
-26.537 -24.875 -1.8405 0.929499 0 1.9 -0.160046 -0.278701 -0.946948 -0.999911
-37.7845 -23.6295 -7.00875 -1.44026 -0.0404976 -3.5 0.905176 -0.142503 -0.400438 0.706771
-35.984 -26.7372 -13.949 0.479432 0 3.8 -0.284996 -0.891749 0.351513 0.642106
-33.416 -23.62 -2.5635 0.844887 0 -4.5 0.142777 -0.381323 -0.913349 -0.691058
-32.009 -30.1135 -15.763 -0.316666 -0.0646481 -0.4 -0.173023 -0.690584 0.702252 0.999941
-27.335 -19.8592 -4.374 0.767573 0.371745 -0.9 -0.394556 -0.838576 -0.375654 0.999883
-34.0983 -23.1655 -9.87975 0.938911 0 -4.3372 -0.431413 0.0156979 0.902018 -0.427977
-28.5924 -22.6064 -0.77975 0.756164 0 -0.9 -0.488401 0.102499 -0.866579 0.782784
-28.8095 -24.1842 -15.6372 0.660935 0 -4.5 0.249006 -0.121954 0.960793 0.999889
-37.6795 -26.739 -4.7965 -0.691554 -0.152245 -2.83487 0.783128 -0.221393 0.581116 -0.999974
-36.885 -21.164 -4.744 0.785634 0 -4.5 0.810158 -0.558933 -0.176746 0.999829
-36.9782 -21.2565 -5.86325 1.14528 0 -4.5 0.726558 -0.685163 0.0516233 0.599276
-38.0585 -26.1432 -11.1858 0.45753 0 -3.07639 -0.0311431 -0.688322 0.724736 -0.636128
-24.9705 -24.4175 -10.063 -0.165355 -0.855726 -0.4 -0.0421125 -0.940616 0.33685 0.0605073
-35.5202 -22.621 -2.26125 1.11433 0 -4.5 -0.310475 -0.614116 -0.72558 0.436899
-30.833 -30.118 -15.249 -1.39217 -0.864291 -0.4 -0.130198 -0.65905 0.740744 -0.999929
-40.431 -22.4535 -12.61 1.30613 0.77731 -3.9 -0.955332 -0.265536 -0.129737 0.999944
-25.658 -24.245 -15.391 0.325423 0 -4.5 -0.341423 -0.0707716 0.937242 0.999865
-28.9568 -23.355 -15.0618 6.85988 0 -4.5 0.404508 -0.790454 0.459952 0.999902
-27.448 -25.874 -1.1355 0.736317 0 1.9 0.0744934 -0.233561 -0.969484 0.999919
-31.195 -22.571 -1.1145 0.314406 0 -0.9 0.635892 -0.437029 -0.636119 0.587486
-25.0405 -24.8685 -14.815 0.72023 0 -4.5 -0.678409 0.299743 0.670757 0.754008
-26.5585 -24.0145 -8.95825 0.78338 0 -4.5 -0.284193 -0.937207 0.202181 0.0706701
-28.5545 -22.3745 -8.379 0.844933 0 -0.9 -0.381205 -0.514603 0.768027 -0.047634
-35.897 -20.426 -6.269 1.16592 0 -4.5 0.585791 -0.788476 0.187493 0.753946
-36.25 -28.2897 -15.4283 0.474637 0 3.8 -0.520458 -0.272095 0.809375 0.999932
-25.687 -28.13 -13.701 1.44531 0 -4.5 -0.531665 0.277933 0.800053 0.999876
-33.842 -27.7565 -0.4375 -0.605172 -0.79221 -3.9002 -0.895284 -0.275162 -0.350361 -0.999929
-28.1467 -19.659 -5.37425 0.735915 0 -0.9 0.107952 -0.994152 0.00268417 0.81452
-24.5955 -25.364 -12.797 1.60056 0 -4.5 -0.974357 -0.218098 0.0553376 0.0764577
-28.0175 -24.127 -1.77225 0.303536 0 0.584233 -0.366309 -0.157352 -0.917092 -0.791994
-24.438 -24.8795 -13.7963 1.99279 0 -4.5 -0.980641 0.0277101 0.193845 0.674217
-27.3555 -21.023 -7.1475 0.566112 0 -0.9 -0.787761 -0.316579 0.528404 0.6433
-26.0522 -23.8843 -2.0425 1.12789 0 1.9 -0.197714 -0.245515 -0.949016 0.999884
-33.585 -22.6085 -2.8735 0.662139 0 -4.5 -0.0606333 -0.5722 -0.81787 0.229919
-22.963 -25.0735 -6.0465 0.554448 0 -0.4 -0.417431 -0.876528 -0.239686 0.999908
-37.1225 -24.2765 1.4105 0.41421 0 -3.5 -0.311731 -0.833355 -0.456447 0.999932
-30.0385 -25.651 -13.0817 1.6718 0 -4.5 0.753525 -0.657049 0.0220537 -0.206432
-28.8225 -19.9032 -6.09875 0.27764 0 -0.9 0.118865 -0.980348 0.157443 0.412504
-39.3773 -23.475 -0.8915 -0.241276 0 -3.15569 0.325251 -0.927836 0.182568 0.999933
-32.9975 -19.4755 -8.768 0.241248 0 -4.5 -0.147615 -0.788229 0.597415 0.825516
-35.359 -29.266 -15.0075 0.704203 0 3.73201 -0.122789 -0.0816571 0.989068 0.999894
-25.9715 -24.3996 -10.2426 0.540814 -0.0568277 -4.26037 -0.0391473 -0.987244 0.154324 0.057467
-36.739 -21.83 -3.358 0.677003 0 -4.5 0.702098 -0.56066 -0.438996 0.632881
-37.9315 -25.9475 -7.186 -0.169598 0 2.5 0.856665 0.029631 -0.515021 0.999899
-29.3545 -20.6798 -7.718 0.547938 0 -0.9 -0.036292 -0.663235 0.74753 0.530365
-35.312 -21.607 -9.694 0.0843619 0 -4.5 0.527044 -0.605539 0.596278 0.725495
-38.0165 -23.833 0.694 0.219732 -0.081968 -3.24156 -0.116576 -0.942295 -0.313833 0.999875
-34.234 -29.8043 -15.0378 0.869548 0 0.259946 0.164726 0.291335 0.942332 0.999977
-37.2165 -22.6735 -4.95075 0.811989 0 -4.5 0.999383 0.0299256 -0.0184018 0.566142
-24.859 -24.673 -11.2455 0.704847 0 -4.5 -0.484915 -0.863534 0.138442 0.161595
-31.0035 -22.4735 -8.8335 0.895116 0 -0.9 -0.126427 -0.437072 0.890497 -0.335124
-33.738 -27.0845 0.8965 -1.18684 -0.158872 -3.5 -0.900742 -0.425218 0.088616 0.999924
-28.253 -25.071 -1.3675 0.487479 0 1.9 -0.107631 -0.162189 -0.980872 0.231721
-37.9545 -26.7685 -14.635 0.416181 0 3.8 -0.204707 -0.937892 0.280097 0.999947
-29.1667 -20.3978 -2.02225 0.342966 0 -0.9 0.161921 -0.926097 -0.340774 0.999845
-25.5485 -24.1787 -8.842 -0.454105 -0.611223 -0.613974 0.104435 -0.992598 0.061986 -0.140038
-39.1775 -26.1315 -11.6748 1.22029 0 -1.1639 -0.4236 -0.748416 0.51033 -0.99992
-32.769 -27.17 -14.473 0.571688 0 -0.4 0.25582 -0.737422 0.625112 0.625725
-30.0055 -29.2809 -14.4549 -0.130588 -0.217341 2.33849 -0.0557247 -0.502788 0.862612 -0.551925
-40.2065 -23.6548 -11.0267 1.9093 0 -3.9 -0.93789 -0.33147 0.102423 -0.99992
-36.7401 -22.4964 -7.915 -0.370205 -0.295355 -4.01388 0.623854 -0.747948 0.22667 -0.817323
-36.63 -24.6855 -11.0085 -0.927142 -0.511764 -3.5 -0.0561708 -0.263352 0.963063 0.225042
-33.871 -19.7375 -6.959 0.832081 0 -4.5 0.219649 -0.97299 -0.0710211 0.3885
-24.1835 -27.3475 -10.3763 0.352134 -0.0724663 -3.95605 -0.928195 0.110776 0.355221 0.999914
-24.9002 -23.8859 -14.6281 0.656611 0 -4.5 -0.775078 -0.394729 0.493399 0.999893
-24.353 -26.684 -12.358 1.63007 0 -4.5 -0.971873 0.130023 0.196359 0.767767
-37.2285 -24.7745 -6.5025 -1.40836 -0.896874 -3.5 0.8109 0.0452417 -0.583433 -0.221282
-32.9721 -20.9374 -5.05275 1.02677 0.402778 -4.5 -0.327311 -0.654179 -0.681848 0.241547
-32.8848 -28.25 -1.186 0.120588 -0.44663 -1.3 -0.405049 -0.324696 -0.854697 -0.999929
-27.032 -23.333 -12.898 0.281711 0 -4.5 -0.0135576 -0.858038 -0.513407 0.655571
-29.967 -22.6885 -0.403 1.1885 0 -0.9 0.0553832 0.0186 -0.998292 0.99986
-29.6335 -21.749 -8.1665 0.563851 0 -0.9 -0.177046 -0.472152 0.863555 -0.315332
-27.1004 -24.5286 -10.1823 0.965076 0 -4.5 -0.0908872 -0.965857 0.242611 -0.670543
-36.5635 -23.9335 0.4025 0.442788 0 -3.5 -0.410577 -0.844867 -0.342967 0.838935
-35.0638 -20.119 -6.96063 0.548294 0 -4.5 0.448224 -0.889073 0.0929728 0.424435
-23.913 -25.009 -5.321 0.0673264 0 1.9 -0.52725 -0.845953 -0.0798256 -0.999919
-33.636 -25.7722 -9.60025 0.160207 0 2.5 0.147195 -0.336559 0.930087 -0.999903
-33.1425 -28.02 -14.931 1.24222 0 -0.4 0.221066 -0.479653 0.849154 0.458503
-32.7168 -22.3741 -3.55525 0.611372 0 -2.7245 0.0512952 -0.865857 -0.497655 -0.491478
-29.8337 -24.4953 -14.8195 0.936909 0 -4.5 0.880842 0.0527822 0.470459 0.999864
-28.083 -27.9681 -13.8029 0.606279 0 -4.5 -0.0661453 -0.0963378 0.993148 -0.492349
-27.4666 -23.2458 -1.99812 0.336744 0 0.402628 -0.41392 -0.0322948 -0.90974 -0.359755
-38.279 -24.68 -8.241 -1.06827 -0.00341703 -3.5 0.867961 -0.157131 -0.471119 -0.100739
-30.471 -24.863 -11.048 0.146664 -0.101638 -0.9 -0.0888292 -0.77785 0.622141 0.2133
-33.7347 -25.3365 -0.9355 -0.759004 0 -4.5 -0.453156 -0.404627 -0.794308 0.305035
-24.778 -24.0451 -7.63963 -0.0437144 0 -0.4 0.0684201 -0.982369 -0.173983 0.30492
-32.0314 -22.3864 -8.89825 0.621973 -0.00440117 -4.00664 -0.26108 -0.25863 0.930026 -0.740327
-39.7513 -24.4035 -10.2797 1.05523 0 -3.9 -0.455058 -0.863078 0.219132 -0.999914
-31.7831 -25.2206 -10.9811 -0.980292 -0.519273 -0.9 0.493637 -0.534526 0.686006 0.0508767
-39.6823 -24.5473 -2.41125 0.245523 0 -3.30367 0.503052 -0.628027 0.593735 0.99993
-37.7945 -26.6174 -12.1351 0.513871 0 3.8 -0.0733009 -0.975671 0.206621 -0.82583
-38.5718 -25.6588 -8.361 -0.198998 0 -3.5 0.823362 -0.180297 -0.538115 -0.999938
-25.266 -22.285 -4.3165 0.839772 0 1.9 -0.720073 -0.637604 0.273779 0.736711
-27.9543 -25.4463 -15.3485 0.160166 0 -4.5 -0.0913779 0.386006 0.91796 0.61436
-33.9864 -19.7584 -8.34962 0.051154 0 -4.5 0.401786 -0.872791 0.277134 0.518234
-22.4737 -26.1257 -8.13925 0.549482 0 -0.4 -0.878349 -0.0236222 0.477435 0.999912
-37.1932 -22.3652 -6.845 0.423452 -0.263085 -3.95906 0.896694 -0.430289 0.103882 0.265694
-30.7533 -25.7149 -1.98962 0.709969 0 1.47221 0.181547 -0.0146587 -0.983273 -0.395198
-24.9016 -23.5497 -13.5099 1.01232 0 -4.5 -0.684905 -0.683614 -0.252146 0.999875
-35.4245 -20.494 -5.277 1.63792 0 -4.5 0.349995 -0.911633 -0.215472 0.217058
-30.514 -20.71 -7.79275 0.466272 0 -2.72302 -0.264675 -0.798956 0.540015 0.112718
-31.8853 -28.2362 -1.27775 0.904675 0 -1.3 0.0170779 -0.358156 -0.933505 -0.999908
-29.497 -24.677 -12.618 0.612752 0 -4.5 0.687309 -0.473153 -0.55112 0.272355
-34.2959 -26.0969 -0.035 -0.426276 -0.190079 -4.17317 -0.749357 -0.579157 -0.321001 -0.034299
-23.3505 -23.9089 -8.17925 -0.533077 -0.55416 -0.4 -0.448478 -0.874535 -0.184544 0.792652
-36.8408 -24.3916 -4.89563 0.000884526 -0.0438676 -4.40719 0.959729 -0.0515327 0.276161 -0.527805
-29.798 -25.261 -11.776 0.462304 0 -2.58597 0.252806 -0.939408 0.231521 -0.0289774
-33.4144 -27.1509 -1.21337 -0.92057 -0.956561 -4.5 -0.67314 -0.139874 -0.726167 -0.844154
-29.1082 -23.0194 -9.15563 1.19312 0 -0.9 -0.122855 -0.565083 0.815836 0.5543
-31.8265 -19.5578 -8.17325 0.648799 0 -4.5 -0.413003 -0.896419 0.160811 0.82006
-26.7213 -24.3657 -11.8425 0.78204 0 -4.5 -0.0619511 -0.954923 -0.290318 -0.375688
-25.8778 -22.608 -2.49 0.980298 0 1.9 -0.418265 -0.495422 -0.761322 0.535433
-35.2458 -25.608 0.3465 0.12511 0 -3.5 -0.591832 -0.771444 -0.233685 -0.617449
-24.2741 -24.3748 -4.36 -0.146654 0 1.9 -0.808741 -0.543981 0.223658 0.99987
-31.589 -23.715 -1.2615 0.90113 0 -0.9 0.470801 0.115819 -0.874604 0.51951
-22.2895 -25.328 -7.1585 0.509032 0 -0.4 -0.761912 -0.643413 -0.0742303 0.999904
-36.5326 -22.4531 -2.44963 1.14504 0 -4.5 0.376571 -0.747139 -0.547702 0.230028
-28.942 -23.9535 -1.18325 0.254902 0 -0.9 -0.323432 0.243263 -0.914448 0.170414
-26.9549 -19.9837 -5.4755 1.13611 0.684788 -0.9 -0.659636 -0.70305 0.265709 0.877677
-32.3466 -22.9034 -2.22662 0.426218 0 -0.9 0.509118 -0.526804 -0.680644 0.154968
-33.5854 -24.6109 -9.777 -0.05085 -0.0614082 -1.14528 0.1346 0.00725659 0.990873 -0.153741
-27.9597 -23.2151 -13.4333 0.250493 0 -4.5 0.249224 -0.928028 -0.27686 0.607595
-30.0898 -21.366 -1.041 0.414756 0 -0.9 0.359615 -0.663126 -0.656461 0.999839
-24.1863 -23.6594 -9.0375 -0.982668 -0.224284 -0.4 -0.136183 -0.942429 0.305419 0.999896
-24.728 -26.1887 -13.5675 1.36024 0 -4.5 -0.843922 0.210181 0.493579 0.451049
-36.106 -25.2495 1.855 0.444823 0 -3.5 -0.63565 -0.704759 -0.315062 -0.999877
-39.8105 -25.0225 -11.827 2.85199 0 -3.9 -0.866129 -0.444163 0.229217 -0.999889
-34.4656 -19.9052 -6.11037 1.14085 0 -4.5 0.242608 -0.951423 -0.189567 0.886157
-28.1635 -20.1955 -7.06875 0.483405 0 -0.9 -0.216654 -0.817756 0.533232 0.723068
-34.488 -21.832 -3.2225 0.795362 0 -4.5 -0.286991 -0.65682 -0.697297 0.179838
-30.8143 -26.1585 -12.2295 -0.0273179 0 -0.4 0.317305 -0.910411 0.26546 -0.680914
-31.4846 -29.2891 -14.8231 0.331006 -0.295086 -0.4 -0.254189 -0.405874 0.877869 -0.442345
-24.1645 -25.8459 -11.408 0.74777 0 -4.5 -0.973114 -0.0634646 0.221406 0.370628
-32.4342 -20.6705 -5.959 1.3111 0.0229814 -4.5 -0.375077 -0.756587 -0.535624 -0.724703
-39.268 -25.2192 -9.474 0.302873 0 -3.70722 0.711535 -0.499242 -0.494444 0.99991
-28.912 -25.4475 -11.0865 0.622434 0 -2.25754 0.148276 -0.945898 0.288602 -0.999902
-37.791 -23.2075 -1.5575 0.749364 0 -3.5 0.119419 -0.988603 -0.0916669 0.287903
-36.0446 -23.2335 -10.9699 -1.28858 -0.178229 -3.5 0.0061093 -0.449357 0.893331 0.91588
-27.6506 -20.4801 -3.50338 0.481587 0 -0.9 -0.493109 -0.748461 -0.443452 0.253218
-29.2833 -27.5691 -1.57712 1.26519 0 1.9 0.143947 -0.0595619 -0.987791 -0.999929
-27.6199 -23.104 -14.562 1.82468 0 -4.5 0.135189 -0.983975 0.116267 0.455666
-32.847 -20.288 -9.379 1.69056 0 -4.5 -0.0598406 -0.476096 0.877355 0.722385
-32.9207 -23.337 -9.56825 0.38274 0 -1.9759 -0.163471 -0.24644 0.955272 -0.151555
-38.6231 -26.4175 -13.354 0.547161 0 3.8 -0.207619 -0.974875 0.0806987 0.999928
-24.878 -28.148 -12.6735 1.6238 0 -4.5 -0.883415 0.303832 0.356741 0.999898
-26.1098 -24.385 -7.50775 0.508064 0 -1.09171 -0.25138 -0.966748 0.0469804 -0.740102
-34.7104 -22.3463 -10.1835 0.836219 -0.246548 -4.06716 -0.0360823 -0.303476 0.952156 0.361505
-37.0607 -23.5231 -5.98887 -0.197648 -0.0787519 -3.89574 0.946992 0.0940731 -0.307174 -0.321144
-38.8284 -25.1796 -10.8215 0.660901 0 -3.5 -0.1315 -0.539438 0.831694 -0.134684
-30.563 -27.6602 -1.3265 0.711249 0.244996 0.190931 0.0482373 -0.271622 -0.961194 0.999868
-25.9525 -22.8603 -14.1547 3.93418 0 -4.5 -0.248751 -0.923907 0.290722 0.999879
-29.7255 -24.1327 -9.70375 0.562024 -0.61987 -0.9 -0.133744 -0.632351 0.76305 -0.653557
-32.5433 -19.4428 -7.067 3.48378 0 -4.5 -0.177943 -0.934098 -0.309512 0.736127
-32.6808 -25.847 -10.199 -0.861438 -0.492972 0.809993 0.536068 -0.43523 0.72333 -0.829425
-23.3018 -26.5219 -9.06775 0.216764 0 -0.4 -0.785542 0.0394613 0.617549 -0.999903
-35.6465 -21.2218 -3.34025 0.709978 0 -4.5 0.165364 -0.809028 -0.564028 0.756276
-29.6774 -25.7655 -14.2153 3.73979 0 -4.5 0.689306 -0.00392838 0.724459 0.196239
-33.2988 -19.8456 -5.965 1.20154 0.45846 -4.5 -0.210083 -0.863485 -0.45854 0.530244
-32.0936 -26.1453 -12.2078 0.109314 0 -0.4 0.33981 -0.873246 0.349243 0.219722
-26.9141 -23.4058 -5.9905 0.0218395 0 1.60178 -0.689198 -0.48726 0.536269 -0.99987
-34.7195 -20.6192 -4.38925 0.962526 0.0277884 -4.5 -0.159565 -0.801782 -0.57592 0.495648
-37.028 -26.617 -5.628 -0.437122 -0.327238 -0.565489 0.963143 -0.0304947 0.267256 -0.999875
-33.308 -26.8254 -13.5068 0.155281 0 -0.4 0.320042 -0.871973 0.370454 0.239238
-31.3354 -21.1243 -8.6975 1.51102 0 -3.04365 -0.437509 -0.294068 0.84977 0.319498
-35.9009 -25.7264 -10.8871 -0.0988812 -0.564298 -3.5 -0.589656 -0.269477 0.761373 -0.207131
-35.2573 -24.7731 -0.946625 0.00308702 -0.472416 -4.39945 -0.559008 -0.638388 -0.529122 -0.580727
-37.874 -23.3542 -8.26612 -1.0772 0 -3.5 0.802846 -0.595789 -0.0217489 0.449228
-37.033 -27.401 -15.467 0.399813 0 3.8 -0.33582 -0.750143 0.569659 0.999893
-38.329 -24.259 -10.198 -0.0120053 0 -3.5 0.452844 -0.784744 0.423212 0.164893
-37.1651 -22.8009 -3.62256 0.808361 0 -4.5 0.9664 -0.2394 -0.0935884 0.133219
-29.4912 -25.0355 -1.6655 0.363485 0 0.513462 0.185853 0.206914 -0.960544 -0.432763
-34.5255 -27.1232 -13.285 0.939214 0 3.32663 -0.0708241 -0.950561 0.302354 -0.157286
-40.4995 -22.723 -11.554 1.56327 0.574198 -3.9 -0.957994 -0.276034 -0.0778004 -0.999901
-38.8415 -23.6247 -1.89725 0.374907 0 -3.5 0.39371 -0.832038 0.390776 0.630755
-35.2211 -24.9961 -10.3006 -1.05105 -0.196348 -3.5 -0.512927 0.152623 0.844755 -0.27619
-26.8908 -21.6383 -5.96425 0.1174 0 -0.9 -0.916525 -0.140644 0.374434 -0.0812344
-32.8765 -29.6815 -15.313 0.389901 0 -0.4 0.00810343 -0.236106 0.971694 0.99983
-32.419 -21.8701 -4.47662 0.602975 0 -3.79537 -0.0354487 -0.831037 -0.555087 -0.637759
-26.5895 -28.7281 -13.7615 1.04328 -0.00574705 -1.54371 -0.119143 0.0790947 0.989722 0.999832
-35.0145 -28.0312 -14.5469 0.801943 0 1.42991 -0.178663 -0.548449 0.816874 -0.017634
-28.777 -20.1373 -3.91925 0.0961675 0 -0.9 0.177717 -0.959041 -0.220584 0.345877
-34.7293 -25.6959 -9.77075 -0.205561 0 -2.71285 -0.439648 -0.10017 0.892567 -0.999888
-37.3988 -23.206 -9.94925 -0.881512 0 -3.5 0.551247 -0.70405 0.447705 0.607998
-27.2078 -23.6698 -15.3118 1.09669 0 -4.5 -0.0864084 -0.515683 0.852411 0.513183
-27.0285 -21.9355 -2.28575 0.508968 0 0.594267 -0.623502 -0.465606 -0.628058 0.219909
-26.0903 -22.5157 -5.20156 0.55304 0 1.9 -0.580308 -0.491692 0.649216 0.0363365
-31.6475 -27.288 -14.7013 0.589117 0 -0.4 -0.140397 -0.444576 0.88467 0.620013
-31.1249 -20.6504 -6.57206 0.718633 0 -3.84752 -0.0894809 -0.94312 -0.320183 -0.170404
-33.1711 -21.2861 -9.61112 1.51008 0 -4.5 -0.303656 -0.128428 0.944086 0.439077
-27.7669 -29.3027 -14.5238 -0.608578 -0.339879 3.8 -0.131028 -0.460772 0.877793 0.999867
-36.3063 -22.4689 -9.43894 -0.642152 -0.78735 -3.5 0.533425 -0.727707 0.431161 0.0552036
-31.2912 -23.6046 -9.69238 -0.72283 -0.380706 -0.9 -0.0924368 -0.634137 0.767676 -0.0729827
-31.2269 -26.1798 -13.7583 0.547357 0 -0.4 0.228799 -0.844896 0.48353 0.345084
-23.8752 -24.6548 -9.91313 -0.893589 -0.0248742 -0.4 -0.713235 -0.432475 0.551598 0.353557
-25.0772 -24.3552 -12.3717 1.20705 0 -4.5 -0.626265 -0.670573 -0.397647 0.204121
-24.7167 -27.9965 -11.333 1.07957 0 -3.72185 -0.952333 0.27507 0.131902 -0.999913
-27.9195 -24.6195 -11.248 0.644437 0 -4.5 0.385552 -0.870723 -0.305271 0.114778
-29.8585 -20.4776 -5.33275 -0.0910737 0 -0.9 0.415874 -0.89757 -0.146347 -0.0979566
-38.0498 -26.1103 -4.058 -1.31523 0 -3.5 0.715677 -0.304363 0.628625 -0.999824
-36.363 -23.6466 -0.986 1.11183 0 -4.5 -0.295562 -0.79547 -0.529029 0.0388333
-22.9041 -24.6373 -8.85738 -1.25021 -0.802951 -0.4 -0.811366 -0.345437 0.471548 0.868964
-24.8 -23.4823 -2.609 0.963159 0 1.9 -0.66131 -0.603563 -0.445399 0.999888
-25.6042 -25.9503 -14.2677 1.15412 0 -4.5 -0.369129 0.430487 0.823665 0.0649878
-29.6172 -27.0536 -13.7999 0.59416 0 -0.4 -0.0714068 -0.093414 0.993063 -0.42143
-29.603 -24.0018 -13.4288 0.554866 0 -4.5 0.70967 -0.648313 -0.275787 0.902123
-30.7057 -28.434 -14.4342 0.994333 0 -0.4 -0.213379 -0.158731 0.963989 -0.115608
-29.3638 -29.9032 -15.2987 -1.15407 -0.410812 3.8 0.0711298 -0.776152 0.626521 0.999934
-30.0723 -20.6686 -3.73563 0.0426425 0 -0.9 0.519317 -0.84727 -0.111547 0.572786
-28.0015 -23.5395 -9.311 1.47293 0 -0.9 -0.205646 -0.772553 0.600726 0.166863
-28.1175 -21.359 -1.324 0.518984 0 -0.9 -0.472268 -0.442304 -0.76245 0.999836
-34.437 -24.1607 -2.04925 0.470758 0 -4.5 -0.246412 -0.557533 -0.792741 -0.734929
-26.4177 -21.5044 -4.21025 0.487035 0 -0.267194 -0.75927 -0.63755 -0.130531 0.0949261
-32.4916 -24.5046 -1.84512 0.577812 0 -4.15985 0.0656693 -0.0902764 -0.993749 -0.0262581
-27.3798 -23.2424 -7.61438 0.695386 0 -3.87213 -0.7926 -0.45342 0.407671 -0.194457
-39.9635 -24.0047 -12.8775 3.32223 0 -3.9 -0.954923 -0.268419 -0.12678 -0.999914
-31.1887 -21.3237 -5.02187 0.264737 0 -0.9 0.23828 -0.901441 -0.361422 -0.418567
-28.0519 -26.5091 -14.3436 0.964818 0 -4.5 0.195058 0.510884 0.837227 -0.174078
-37.6413 -23.7496 -3.15291 0.903412 0 -4.20887 0.656747 -0.580573 0.481268 -0.111706
-30.7518 -21.439 -3.085 -0.138329 0 -0.9 0.564977 -0.785506 -0.252548 -0.185799
-25.2404 -24.1246 -5.9265 -0.0777206 0 1.9 -0.443094 -0.866322 0.230552 -0.145616
-32.1842 -26.6382 -1.89634 0.558224 -0.544426 -4.24717 -0.223003 -0.210666 -0.951782 -0.620647
-36.6496 -26.2678 -11.6843 0.368989 0 2.08027 -0.138262 -0.797459 0.587318 -0.0824144
-35.9261 -21.525 -7.92712 0.796679 0 -4.5 0.689433 -0.646842 0.326003 -0.133203
-39.082 -25.2895 -3.0955 0.294648 0 -3.5 0.44502 -0.386209 0.80796 -0.999878
-24.012 -26.0796 -10.0764 0.120685 0 -0.552308 -0.93097 0.0441495 0.362416 -0.508902
-33.9807 -27.0012 -11.2396 -0.452485 0 3.8 0.0612884 -0.997521 0.0345677 -0.571356
-34.7789 -26.825 -10.6223 0.87393 0 2.62731 -0.165997 -0.811255 0.560633 -0.749951
-32.9889 -26.8051 -11.222 -0.81581 -0.32778 3.8 0.375982 -0.904853 0.199695 -0.99977
3 227 217 235
3 227 200 217
3 207 235 217
3 238 227 235
3 74 200 227
3 200 47 217
3 207 153 235
3 8 207 217
3 227 238 74
3 235 197 238
3 158 200 74
3 24 47 200
3 217 47 57
3 172 153 207
3 235 153 87
3 207 8 120
3 57 8 217
3 74 238 142
3 197 235 87
3 197 98 238
3 200 158 24
3 158 74 229
3 24 138 47
3 138 57 47
3 153 172 177
3 172 207 129
3 153 177 87
3 64 120 8
3 120 129 207
3 148 8 57
3 142 238 39
3 229 74 142
3 87 10 197
3 98 197 149
3 238 98 139
3 24 158 231
3 158 229 204
3 231 138 24
3 138 148 57
3 177 172 82
3 172 129 114
3 177 180 87
3 91 120 64
3 148 64 8
3 129 120 183
3 139 39 238
3 142 39 90
3 229 142 90
3 10 87 180
3 149 197 10
3 98 149 53
3 139 98 53
3 204 231 158
3 204 229 101
3 138 231 195
3 138 51 148
3 114 82 172
3 82 147 177
3 114 129 59
3 180 177 147
3 183 120 91
3 18 91 64
3 148 18 64
3 129 183 59
3 39 139 134
3 39 134 90
3 26 229 90
3 149 10 180
3 149 230 53
3 22 139 53
3 204 131 231
3 101 229 26
3 101 131 204
3 205 195 231
3 51 138 195
3 51 18 148
3 114 94 82
3 94 147 82
3 114 59 161
3 147 119 180
3 70 183 91
3 18 42 91
3 183 161 59
3 134 139 232
3 134 190 90
3 137 26 90
3 180 175 149
3 149 33 230
3 230 22 53
3 22 232 139
3 221 231 131
3 101 26 137
3 131 101 52
3 179 195 205
3 231 112 205
3 51 195 233
3 233 18 51
3 94 114 242
3 94 119 147
3 114 161 2
3 175 180 119
3 183 70 106
3 91 128 70
3 42 18 233
3 128 91 42
3 161 183 208
3 232 190 134
3 90 190 137
3 175 136 149
3 33 149 136
3 185 230 33
3 230 232 22
3 112 231 221
3 221 131 52
3 101 137 49
3 19 52 101
3 195 179 233
3 239 179 205
3 112 239 205
3 242 114 65
3 242 43 94
3 43 119 94
3 161 208 2
3 65 114 2
3 175 119 29
3 106 70 211
3 106 208 183
3 128 211 70
3 233 228 42
3 128 42 228
3 232 117 190
3 72 137 190
3 62 136 175
3 33 136 219
3 104 230 185
3 185 33 219
3 104 232 230
3 221 133 112
3 49 137 72
3 19 101 49
3 233 179 165
3 179 239 165
3 133 239 112
3 242 65 210
3 43 242 116
3 43 30 119
3 208 166 2
3 2 166 65
3 29 119 30
3 175 29 62
3 162 106 211
3 162 208 106
3 171 211 128
3 228 233 41
3 228 171 128
3 232 14 117
3 117 17 190
3 38 72 190
3 136 62 189
3 136 156 219
3 185 123 104
3 219 93 185
3 240 232 104
3 19 49 72
3 41 233 165
3 239 105 165
3 239 133 95
3 65 166 210
3 210 80 242
3 116 242 80
3 30 43 116
3 166 208 162
3 116 29 30
3 62 29 189
3 211 15 162
3 211 171 103
3 92 228 41
3 171 228 155
3 240 14 232
3 240 117 14
3 17 117 169
3 190 17 16
3 72 38 19
3 190 16 38
3 237 136 189
3 156 136 237
3 219 156 93
3 185 132 123
3 127 104 123
3 145 185 93
3 240 104 127
3 41 165 75
3 11 105 239
3 105 75 165
3 95 54 239
3 210 166 157
3 210 202 80
3 116 80 186
3 25 166 162
3 68 29 116
3 189 29 68
3 15 211 103
3 140 162 15
3 171 155 103
3 92 216 228
3 41 61 92
3 216 155 228
3 240 169 117
3 159 17 169
3 159 16 17
3 189 125 237
3 237 193 156
3 93 156 66
3 145 132 185
3 5 123 132
3 127 123 46
3 93 55 145
3 88 240 127
3 75 61 41
3 105 11 124
3 239 54 11
3 143 75 105
3 166 25 157
3 157 202 210
3 186 80 202
3 20 116 186
3 140 25 162
3 167 68 116
3 189 68 125
3 108 15 103
3 15 108 140
3 126 103 155
3 130 216 92
3 130 92 61
3 155 216 3
3 121 169 240
3 125 218 237
3 237 109 193
3 193 58 156
3 156 0 66
3 93 66 55
3 145 5 132
3 9 123 5
3 46 123 71
3 88 127 46
3 121 240 88
3 32 61 75
3 135 124 11
3 124 143 105
3 135 11 54
3 32 75 143
3 157 25 7
3 157 81 202
3 186 202 188
3 167 116 20
3 102 20 186
3 194 25 140
3 167 125 68
3 103 126 108
3 173 140 108
3 126 155 3
3 130 89 216
3 130 61 69
3 216 122 3
3 181 218 125
3 237 218 243
3 237 243 109
3 58 193 109
3 58 0 156
3 71 123 9
3 61 32 69
3 220 124 135
3 124 220 143
3 32 143 213
3 194 7 25
3 7 81 157
3 81 188 202
3 186 188 154
3 20 86 167
3 102 86 20
3 102 186 154
3 194 140 201
3 12 125 167
3 108 126 178
3 173 96 140
3 108 247 173
3 3 122 126
3 214 89 130
3 216 89 224
3 69 214 130
3 122 216 224
3 181 28 218
3 181 125 12
3 213 69 32
3 220 135 115
3 213 143 220
3 7 194 81
3 168 188 81
3 154 188 107
3 12 167 86
3 86 102 63
3 154 111 102
3 201 140 96
3 201 184 194
3 178 126 150
3 247 108 178
3 246 96 173
3 247 246 173
3 126 122 56
3 214 118 89
3 224 89 141
3 214 69 48
3 56 122 224
3 181 12 63
3 69 213 152
3 115 174 220
3 213 220 174
3 194 184 81
3 168 107 188
3 168 81 241
3 63 12 86
3 63 102 111
3 246 201 96
3 246 184 201
3 126 56 150
3 150 212 178
3 182 247 178
3 246 247 245
3 118 214 50
3 89 118 170
3 160 141 89
3 141 160 224
3 152 48 69
3 48 50 214
3 176 56 224
3 4 181 63
3 152 213 244
3 213 174 244
3 184 241 81
3 168 146 107
3 168 241 31
3 246 241 184
3 56 212 150
3 178 212 182
3 182 191 247
3 13 245 247
3 13 246 245
3 50 84 118
3 170 118 84
3 170 160 89
3 224 160 37
3 85 48 152
3 144 50 48
3 212 56 176
3 99 176 224
3 152 244 83
3 83 244 174
3 168 76 146
3 146 79 107
3 241 110 31
3 168 31 76
3 241 246 13
3 212 206 182
3 191 182 199
3 13 247 191
3 50 40 84
3 84 36 170
3 170 203 160
3 37 160 203
3 224 37 99
3 48 85 144
3 215 85 152
3 222 50 144
3 223 212 176
3 236 176 99
3 215 152 83
3 146 192 79
3 110 241 1
3 110 76 31
3 21 241 13
3 223 206 212
3 182 206 77
3 97 199 182
3 191 199 21
3 21 13 191
3 40 50 222
3 36 84 40
3 36 203 170
3 37 203 27
3 37 27 99
3 164 144 85
3 164 85 215
3 144 45 222
3 236 223 176
3 6 236 99
3 192 146 234
3 241 21 1
3 110 1 163
3 110 163 76
3 223 225 206
3 206 97 77
3 182 77 97
3 97 196 199
3 21 199 187
3 36 40 222
3 203 36 113
3 27 203 113
3 27 6 99
3 144 164 45
3 222 45 198
3 223 236 100
3 6 113 236
3 35 192 234
3 1 21 187
3 163 1 73
3 225 223 209
3 206 225 151
3 97 206 196
3 60 199 196
3 187 199 44
3 36 222 113
3 27 113 6
3 222 198 236
3 100 236 198
3 100 209 223
3 222 236 113
3 187 73 1
3 78 225 209
3 225 78 151
3 151 196 206
3 60 44 199
3 67 60 196
3 100 198 209
3 226 78 209
3 34 151 78
3 196 151 23
3 34 78 226
3 23 151 34
