ply
format ascii 1.0
comment Generated by PyMesh
element vertex 298
property float x
property float y
property float z
property float charge
property float hbond
property float hphob
property float nx
property float ny
property float nz
property float si
element face 523
property list uchar int vertex_indices
end_header
-28.049 -32.889 -0.331 0.290931 0 -1.3 -0.768492 0.0901325 -0.633479 -0.999884
-40.059 -23.8943 -1.66975 0.0869069 0 -1.90222 -0.0130463 -0.781078 0.624297 -0.621586
-30.054 -27.2865 -1.346 0.584171 0 1.9 0.0967792 -0.111676 -0.989021 -0.999833
-24.052 -25.286 -4.187 -0.609147 0 1.9 -0.927164 -0.297076 -0.228282 -0.168567
-34.5015 -20.821 -9.3965 -0.191171 0 -4.5 0.256322 -0.593434 0.762978 -0.54423
-21.915 -26.45 -6.348 0.296311 0 -0.4 -0.00827766 0.0770502 -0.996993 0.999973
-30.107 -35.786 5.221 0.0159843 0 -0.7 -0.3676 -0.394248 -0.842282 -0.999919
-39.042 -26.462 4.579 1.56345 0 -3.9 -0.0487349 -0.963283 0.264028 -0.999954
-35.9555 -22.672 -10.466 -1.24952 -0.307448 -3.5 0.0938262 -0.688998 0.718665 -0.999943
-29.706 -20.153 -6.633 0.148339 0 -0.9 0.207807 -0.960414 0.185531 -0.561584
-37.4235 -23.046 -8.8585 -0.894476 0 -3.5 0.582647 -0.811154 0.0505184 -0.999925
-31.1265 -35.5605 5.462 0.0465225 0 -0.7 -0.343169 -0.356893 -0.868828 0.999924
-26.7048 -24.575 -2.0225 0.747197 0 1.9 -0.156826 -0.268123 -0.950534 0.751422
-33.897 -21.3498 -4.40075 1.31674 0.031253 -4.5 -0.389569 -0.635906 -0.666228 0.713718
-28.5187 -24.3265 -10 0.811574 0 -0.9 -0.0750359 -0.562421 0.823439 -0.999908
-34.893 -31.0595 4 -0.0978831 0 2.8 -0.484055 -0.0287757 -0.874564 -0.771834
-31.7925 -25.4398 -2.20425 0.715487 -0.0307159 -0.954561 -0.0145965 0.0302106 -0.999437 0.669257
-28.4555 -35.7127 3.61675 -0.0606737 0 -0.7 -0.994236 -0.107049 -0.00602017 -0.99989
-22.99 -26.8088 -5.23712 0.473871 0 -0.4 -0.77705 -0.102754 -0.620995 -0.592038
-27.5815 -24.0315 -9.5135 1.21639 0 -4.1406 -0.397421 -0.731697 0.553783 0.999918
-28.004 -21.399 -7.9525 1.26783 0 -0.9 -0.369704 -0.371312 0.851732 -0.999832
-37.7845 -23.6295 -7.00875 -1.43328 -0.0404976 -3.5 0.905793 -0.177608 -0.3847 -0.770396
-33.416 -23.62 -2.5635 0.720205 0 -4.5 0.142777 -0.381323 -0.913349 0.691058
-23.948 -24.8958 -5.68875 0.143195 0 -0.0495164 -0.445904 -0.861286 -0.243632 0.181624
-33.9468 -29.7127 2.901 0.100802 0 2.8 -0.593915 -0.480108 -0.645571 -0.868095
-34.6181 -30.1429 3.65125 0.028053 0 2.8 -0.464809 -0.288891 -0.836956 -0.646774
-24.1007 -31.8035 -5.42425 -0.0593154 0 -3.5 -0.307076 0.429686 -0.849161 0.069643
-32.7272 -24.8183 -10.1085 -1.03128 -0.279264 -0.9 0.223308 -0.19961 0.954091 -0.999907
-37.714 -27.144 6.586 1.91324 0.318244 -3.9 -0.862378 -0.49386 0.111382 -0.999898
-27.335 -19.8592 -4.374 0.683827 0.371745 -0.9 -0.394556 -0.838576 -0.375654 -0.999883
-34.0983 -23.1655 -9.87975 1.0301 0 -4.5 -0.43807 0.0671966 0.896426 0.520274
-28.5924 -22.6064 -0.77975 0.438144 0 -0.9 -0.488401 0.102499 -0.866579 -0.782784
-23.4415 -29.1117 -5.30475 1.00918 0 -3.08664 -0.524944 0.0646754 -0.848676 0.133758
-31.1763 -28.7205 -0.55475 0.612122 -0.137322 -1.3 -0.231162 -0.557485 -0.797355 -0.533403
-26.3225 -32.957 -5.8575 -0.276168 0 4.5 -0.256118 0.458811 -0.850821 0.999906
-38.609 -27.4115 -4.545 -0.528825 0 -2.81061 0.773915 0.335858 0.536893 -0.999967
-26.8172 -30.388 -3.6805 -0.46642 -0.241315 3.76843 -0.437039 0.653943 -0.61754 0.481448
-36.885 -21.164 -4.744 0.693654 0 -4.5 0.810158 -0.558933 -0.176746 -0.999829
-36.9782 -21.2565 -5.86325 1.1258 0 -4.5 0.726558 -0.685163 0.0516233 -0.599276
-25.906 -37.9375 0.8905 -0.490366 0 -3.5 -0.157499 -0.957291 -0.242463 0.999897
-37.723 -26.037 -4.241 -1.42408 -0 -3.5 0.577993 -0.462454 0.672354 0.496452
-37.515 -26.655 -6.47 -0.0187819 0 2.5 0.763151 -0.645618 -0.0278974 0.999923
-26.3612 -26.5362 -1.23925 0.806797 0 1.9 -0.189069 0.141317 -0.971742 -0.840174
-35.5202 -22.621 -2.26125 1.05719 0 -4.5 -0.307515 -0.630122 -0.713008 -0.410665
-40.425 -22.9555 0.484 -0.780915 -0.0664242 -0.8 0.0517028 -0.975904 -0.211989 -0.99991
-29.0415 -36.0945 4.791 -0.0160185 0 -0.7 -0.720904 -0.278048 -0.634812 -0.999907
-35.4135 -26.9165 3.471 2.12362 0 -3.5 -0.625404 -0.093847 -0.774637 -0.634858
-23.251 -37.565 -0.472 -0.912773 -0.0476852 -3.5 0.0167988 -0.969493 -0.244542 -0.999944
-26.3902 -24.3035 -7.636 0.645011 0 -3.05785 -0.664397 -0.738477 0.115016 0.999888
-28.81 -36.8385 4.068 -0.0533847 0 -0.7 -0.953216 0.214986 -0.212509 -0.999935
-22.4485 -25.291 -6.254 0.380974 0 -0.4 -0.401298 -0.282225 -0.871384 0.999882
-34.615 -34.305 6.128 -0.913686 -0.384441 -0.7 -0.0197344 -0.96781 -0.250909 -0.999903
-25.4233 -26.8137 -1.618 0.729144 0 1.9 -0.600929 0.205911 -0.772324 -0.999895
-23.719 -33.0075 -5.8775 -1.16368 0 -3.5 -0.127718 0.333123 -0.934193 -0.99993
-31.195 -22.571 -1.1145 0.146128 0 -0.9 0.635892 -0.437029 -0.636119 -0.587486
-33.614 -25.2048 -9.58 -0.0921748 -0.133391 0.382865 0.231058 0.558885 0.796404 -0.999954
-37.791 -23.2075 -1.5575 0.625226 0 -4.06035 0.28137 -0.956036 0.0826168 -0.260081
-28.9 -37.1335 2.8525 -0.181693 0 -0.7 -0.988979 -0.00146364 0.14805 0.999886
-26.4855 -24.0275 -8.996 0.629732 0 -4.5 -0.493128 -0.853965 0.16604 -0.999924
-33.788 -27.48 1.8625 -1.19341 -0.611523 -3.5 -0.897825 -0.171271 -0.405681 -0.666271
-28.5545 -22.3745 -8.379 0.807219 0 -0.9 -0.328825 -0.510408 0.79458 0.0573888
-35.897 -20.426 -6.269 1.16522 0 -4.5 0.585791 -0.788476 0.187493 -0.753946
-28.4765 -35.382 -0.254 0.0532396 0 -1.3 -0.844843 -0.145622 -0.514816 -0.317025
-36.6738 -29.5068 3.9995 0.994973 0.00504203 0.725863 -0.782517 -0.151536 -0.603908 0.757565
-31.5098 -32.4665 0.76925 -0.0536741 -0.261836 -0.438726 -0.598193 -0.395763 -0.696804 0.836087
-33.6582 -28.4697 0.5845 -0.540184 -0.277228 -3.37135 -0.911672 -0.328572 -0.246767 0.526169
-38.0607 -24.5695 1.481 0.281121 0 -3.5 0.219022 -0.771399 -0.597472 -0.106824
-28.1467 -19.659 -5.37425 0.580375 0 -0.9 0.107952 -0.994152 0.00268417 -0.81452
-37.8895 -32.5125 3.5275 0.985474 0 2.8 0.5003 0.266348 -0.823868 0.999937
-37.9425 -23.437 -8.064 -1.14026 0 -3.5 0.834796 -0.550524 -0.00628621 -0.999928
-41.425 -23.644 0.875 -0.965806 -0.900152 -0.8 0.413843 -0.787828 -0.456138 -0.999924
-28.0175 -24.127 -1.77225 0.123625 0 0.584233 -0.411054 -0.193307 -0.89088 0.788524
-25.9005 -27.749 -2.0775 0.686494 0 1.9 -0.502835 0.555841 -0.661965 -0.496915
-31.3538 -24.271 -10.5985 -1.35201 -0.0971922 -0.9 0.00194692 -0.733115 0.680102 -0.999936
-33.1338 -29.4533 0.56375 0.170117 0 2.12759 -0.697091 -0.509234 -0.504723 0.460732
-25.4792 -32.116 -5.531 -0.0440587 0 -3.5 -0.0878864 0.560165 -0.823706 0.679768
-27.3555 -21.023 -7.1475 0.458408 0 -0.9 -0.787761 -0.316579 0.528404 -0.6433
-27.2808 -28.3533 -1.796 -0.49514 -0.601845 1.9 -0.238987 0.300045 -0.923503 -0.336546
-24.3498 -24.4585 -6.65775 0.467402 0 -0.4 -0.0831911 -0.920818 -0.381017 -0.999946
-33.585 -22.6085 -2.8735 0.536188 0 -4.5 -0.0606333 -0.5722 -0.81787 -0.229919
-29.536 -26.109 -1.702 0.762265 0 1.9 0.152956 -0.115983 -0.981403 0.376683
-35.501 -21.905 -9.79 0.0953942 0 -4.5 0.39292 -0.642734 0.657652 -0.234987
-34.4002 -22.045 -10.118 2.97494 0 -4.5 -0.150833 -0.226312 0.962306 -0.521296
-38.831 -23.598 0.132 -0.560807 -0.0318314 -3.40127 -0.217656 -0.85981 -0.461901 -0.26433
-25.9435 -29.9028 -3.8355 0.11578 -0.219902 -0.833563 -0.57356 0.313071 -0.756978 -0.0201433
-38.176 -31.5513 4.103 0.837191 0.145144 -1.68833 0.20774 0.592654 -0.778207 -0.999945
-28.8225 -19.9032 -6.09875 -0.0332151 0 -0.9 0.118865 -0.980348 0.157443 -0.412504
-40.8605 -23.3495 -0.86625 -0.22736 0 -0.8 0.282125 -0.905803 0.316111 -0.811314
-32.9975 -19.4755 -8.768 0.135857 0 -4.5 -0.147615 -0.788229 0.597415 -0.825516
-29.45 -22.9648 -8.99375 1.09525 0 -0.9 -0.0594133 -0.592613 0.803294 0.12775
-36.739 -21.83 -3.358 0.548378 0 -4.5 0.702098 -0.56066 -0.438996 -0.632881
-25.8487 -31.03 -4.35675 0.536563 0 -0.846252 -0.165161 0.582357 -0.795979 -0.362844
-29.3545 -20.6798 -7.718 0.408229 0 -0.9 -0.036292 -0.663235 0.74753 -0.530365
-30.4315 -34.0205 3.7885 -0.464334 0 -0.7 -0.469969 -0.875525 -0.11218 -0.461517
-22.622 -30.6835 -5.776 0.0171215 0 -3.5 -0.547775 0.168758 -0.819429 -0.999877
-23.318 -24.744 -6.612 0.436439 0 -0.4 -0.366084 -0.798214 -0.478369 0.999931
-38.5425 -26.7708 3.54475 1.74181 0 -3.70858 0.281197 -0.956369 -0.0792918 0.256497
-37.2165 -22.6735 -4.95075 0.741251 0 -4.5 0.999383 0.0299256 -0.0184018 -0.566142
-31.0035 -22.4735 -8.8335 0.751337 0 -0.9 -0.145245 -0.438047 0.887141 0.309152
-35.2518 -20.849 -8.69875 -0.206727 0 -4.5 0.65634 -0.665355 0.355697 -0.683699
-36.8768 -24.1157 1.06575 0.307684 0 -3.5 -0.198631 -0.861157 -0.467925 -0.653518
-29.1667 -20.3978 -2.02225 0.163064 0 -0.9 0.161921 -0.926097 -0.340774 -0.999845
-31.875 -32.94 1.617 0.078534 -0.602461 -0.7 -0.644232 -0.651394 -0.400812 0.691628
-35.036 -23.5465 -10.585 -1.28033 -0.0580936 -3.57649 -0.376592 -0.20959 0.902358 -0.999923
-37.028 -25.75 -6.678 -1.07061 -0.824692 -3.5 0.943034 -0.0875733 -0.320964 0.99987
-32.7884 -34.0934 4.48313 -0.0349549 -0.0239432 -0.7 -0.0381289 -0.894519 -0.4454 0.288371
-36.7401 -22.4964 -7.915 -0.356484 0 -4.36306 0.651505 -0.736726 0.181041 0.690275
-36.6155 -32.2407 4.389 0.251723 0 2.8 0.0969272 0.171036 -0.980486 -0.388456
-33.871 -19.7375 -6.959 0.507369 0 -4.5 0.219649 -0.97299 -0.0710211 -0.3885
-28.48 -28.2477 -1.89975 0.00478194 -0.638843 1.9 -0.0905206 0.079428 -0.992722 0.82196
-34.334 -24.429 -9.9155 -0.479356 0 -3.5 -0.172842 0.0940687 0.980447 0.999911
-27.354 -37.459 -1.5505 0.199935 0 -2.39734 -0.625238 -0.734178 0.264688 0.999931
-31.7446 -23.5861 -9.72125 -0.704176 -0.228567 -0.9 0.0279977 -0.594809 0.80338 0.0452168
-41.7015 -23.7239 -0.32425 -0.503384 -0.331394 -0.8 0.477808 -0.866801 0.142672 -0.999948
-32.9721 -20.9374 -5.05275 0.875568 0.402778 -4.5 -0.327311 -0.654179 -0.681848 -0.241547
-30.4435 -34.2875 2.2655 -0.234359 -0.463041 -0.7 -0.559949 -0.826196 -0.0621165 0.875888
-29.967 -22.6885 -0.403 0.905725 0 -0.9 0.0553832 0.0186 -0.998292 -0.99986
-26.4616 -22.3064 -5.29012 0.143399 0 1.9 -0.72473 -0.365219 0.584278 0.150331
-29.6335 -21.749 -8.1665 0.427781 0 -0.9 -0.173386 -0.448785 0.876658 0.321355
-28.039 -36.5913 -2.06375 0.350051 0 -1.3 -0.974218 -0.186559 0.126864 0.999886
-29.3937 -35.4465 0.84125 -0.362023 0 -1.3 -0.914425 -0.375147 -0.15196 0.577469
-30.0492 -28.305 -1.4985 1.15281 0.553677 -0.816125 -0.129669 -0.172912 -0.976364 0.401776
-35.0638 -20.119 -6.96063 0.442405 0 -4.5 0.489316 -0.867408 0.090404 -0.383319
-30.9126 -33.6514 1.41737 -0.130806 -0.988139 -0.7 -0.641285 -0.662362 -0.387337 0.429396
-32.7168 -22.3741 -3.55525 0.506715 0 -2.7245 0.0512952 -0.865857 -0.497655 0.491478
-29.7749 -29.2666 -1.31475 0.839046 0 -1.3 -0.343763 -0.349951 -0.871414 0.593655
-38.9265 -24.204 1.08 -0.364506 -0.0472002 -3.15347 0.00209582 -0.498407 -0.86694 -0.159058
-29.4912 -25.0355 -1.6655 0.20604 0 0.513462 0.150156 0.294802 -0.943687 0.543386
-24.5397 -24.2973 -5.13525 -0.568552 0 1.6032 -0.794597 -0.552887 0.250862 0.0131098
-27.4666 -23.2458 -1.99812 0.152588 0 0.402628 -0.421883 -0.00247861 -0.906647 0.309662
-32.7702 -32.1496 2.591 -0.145442 0 2.8 -0.669489 -0.335127 -0.662929 -0.0918169
-33.7347 -25.3365 -0.9355 -1.01119 0 -4.5 -0.485257 -0.430268 -0.76118 -0.300676
-25.6305 -25.3485 -1.7875 0.67881 0 1.9 -0.477305 -0.268241 -0.836795 -0.453976
-28.3455 -31.8115 -0.2845 -0.0141515 0 -1.3 -0.785034 -0.223248 -0.577825 -0.60019
-32.974 -28.7151 -0.28825 -0.00790857 0 -1.3 -0.607912 -0.561551 -0.561341 0.454314
-32.0314 -22.3864 -8.89825 0.525755 0 -4.5 -0.258013 -0.259621 0.930605 0.718642
-22.634 -29.2615 -5.889 0.742684 0 -2.15754 -0.640948 0.0638065 -0.764928 -0.9999
-37.1242 -31.2224 4.50112 0.485023 0 2.8 -0.30874 0.374869 -0.874158 0.0487508
-28.2036 -23.26 -9.24562 1.20929 0 -0.9 -0.352291 -0.664547 0.658991 -0.680306
-30.5557 -29.774 -0.245 -0.0974607 -0.122869 -1.3 -0.273992 -0.555995 -0.784728 -0.201956
-25.266 -22.285 -4.3165 0.712343 0 1.9 -0.721482 -0.627967 0.291755 -0.719585
-36.064 -25.1077 1.38875 0.495876 0 -3.5 -0.579812 -0.716495 -0.387884 -0.0636603
-33.9864 -19.7584 -8.34962 0.0707707 0 -4.5 0.3411 -0.902004 0.264651 -0.503073
-37.2147 -29.3915 6.899 3.17741 0 -3.9 -0.985708 0.141202 -0.0918807 -0.999901
-27.9376 -31.4045 -3.7175 -0.291283 0 4.5 -0.752168 0.541105 -0.376097 0.720234
-37.1932 -22.3652 -6.845 0.391056 0 -4.5 0.900393 -0.423668 0.0989838 -0.262769
-28.2745 -33.889 -5.211 -0.143203 0 4.21606 -0.853633 0.39201 -0.342986 0.999905
-30.7533 -25.7149 -1.98962 0.549621 0 1.47221 0.211548 0.00863112 -0.977329 0.342339
-33.4076 -33.427 3.29075 -0.111637 -0.986142 -0.7 -0.274967 -0.601079 -0.750398 0.815309
-35.4245 -20.494 -5.277 1.50588 0 -4.5 0.349995 -0.911633 -0.215472 -0.217058
-30.514 -20.71 -7.79275 0.370762 0 -2.72302 -0.264675 -0.798956 0.540015 -0.112718
-28.9258 -34.8092 3.7905 -0.0438918 0 -0.7 -0.699126 -0.671316 -0.246086 -0.999879
-23.713 -27.846 -4.675 0.77673 0 -0.4 -0.568849 0.146921 -0.809213 -0.613007
-32.9899 -30.5969 2.46881 -0.0305257 0 2.8 -0.79304 -0.33701 -0.507456 -0.873397
-24.5095 -27.1031 -4.08287 0.243256 0 0.30806 -0.77601 0.240193 -0.583195 0.215502
-34.2959 -26.0969 -0.035 -0.762426 -0.190079 -4.17317 -0.661522 -0.660041 -0.355998 0.0164496
-36.8408 -24.3916 -4.89563 -0.081668 -0.0438676 -4.40719 0.963392 -0.0157716 0.267632 0.498454
-28.7677 -34.7257 -4.59375 -0.0836476 0 -0.819507 -0.979787 0.154041 0.127628 0.999918
-31.8265 -19.5578 -8.17325 0.716869 0 -4.5 -0.413003 -0.896419 0.160811 -0.82006
-25.8778 -22.608 -2.49 0.832115 0 1.9 -0.374175 -0.505315 -0.777593 -0.428743
-35.2458 -25.608 0.3465 -0.0498169 0 -3.5 -0.613705 -0.74997 -0.246801 0.69617
-31.589 -23.715 -1.2615 0.789282 0 -0.9 0.470801 0.115819 -0.874604 -0.51951
-27.9548 -36.3602 -1.07625 -0.0109496 0 -1.3 -0.903633 -0.414911 -0.106285 -0.102993
-24.8755 -22.9839 -2.75062 0.822045 0 1.9 -0.701965 -0.526661 -0.479451 -0.999883
-39.5349 -25.703 1.23487 0.462785 0.00762734 -1.68173 -0.0608599 -0.290177 -0.955036 0.869391
-31.949 -34.884 5.5925 -0.103758 0 -0.7 -0.23651 -0.675066 -0.69882 -0.99989
-38.8936 -23.7108 -1.98856 0.275648 0 -3.5 0.489974 -0.732262 0.472989 -0.554499
-27.8199 -27.3252 -1.44887 0.518002 0 1.9 -0.0120861 0.277504 -0.960648 -0.389935
-36.5326 -22.4531 -2.44963 0.93422 0 -4.5 0.387276 -0.762897 -0.517693 -0.212729
-33.6608 -30.8319 3.21325 -0.218529 0 2.8 -0.561424 -0.126904 -0.81774 -0.633334
-34.6113 -27.0637 2.599 -0.498167 -0.751837 -3.5 -0.682732 -0.0874783 -0.725413 -0.322365
-41.603 -24.206 -1.716 0.56554 0 -0.8 0.205483 -0.783816 0.586012 0.999897
-24.3312 -37.7918 0.35275 -1.60732 -0.0526272 -3.5 0.0576467 -0.975591 -0.211896 0.999893
-28.942 -23.9535 -1.18325 0.0941125 0 -0.9 -0.321269 0.216431 -0.921924 -0.195198
-26.9549 -19.9837 -5.4755 1.1871 0.684788 -0.9 -0.659636 -0.70305 0.265709 -0.877677
-31.4086 -27.1324 -1.8165 1.3881 0 -2.4563 0.0875565 -0.30599 -0.948 0.326629
-32.3466 -22.9034 -2.22662 0.275265 0 -0.9 0.509118 -0.526804 -0.680644 -0.154968
-41.3335 -25.101 -2.9565 -0.301803 -0.701986 1.65485 -0.00188795 -0.772855 0.63458 -0.999893
-30.0898 -21.366 -1.041 0.233941 0 -0.9 0.359615 -0.663126 -0.656461 -0.999839
-28.464 -33.8252 -3.34875 -0.219911 0 -1.3 -0.984789 0.0866815 0.150589 0.348442
-28.3655 -36.7085 0.0485 -0.354326 0 -1.3 -0.69214 -0.531969 -0.487803 0.482514
-22.884 -31.7765 -5.9625 -0.780701 0 -3.5 -0.398145 0.227703 -0.888612 0.999937
-34.4656 -19.9052 -6.11037 1.19281 0 -4.5 0.242608 -0.951423 -0.189567 -0.886157
-40.0737 -23.61 1.24637 -1.06305 -0.0844399 -0.8 -0.208878 -0.588337 -0.781172 -0.99986
-27.253 -37.8845 0.9175 -0.374971 0 -3.5 -0.329373 -0.826155 -0.457144 0.999906
-24.2192 -37.3672 -1.3225 -1.61415 -0.905123 -3.5 0.0668927 -0.968248 -0.240877 -0.999917
-28.1635 -20.1955 -7.06875 0.326141 0 -0.9 -0.216654 -0.817756 0.533232 -0.723068
-34.488 -21.832 -3.2225 0.687899 0 -4.5 -0.286991 -0.65682 -0.697297 -0.179838
-24.3093 -23.8796 -3.94844 0.466149 0 1.9 -0.956474 -0.227936 -0.182218 -0.62792
-28.2389 -32.6225 -4.32175 -0.187621 0 4.5 -0.821016 0.352192 -0.449325 0.551804
-28.3207 -32.3503 -3.0785 -0.439479 0 -1.3 -0.982058 0.155481 0.106711 0.579149
-32.4342 -20.6705 -5.959 1.1451 0.0229814 -4.5 -0.375077 -0.756587 -0.535624 0.724703
-33.3568 -34.5088 6.25675 -1.25336 -0.133392 -0.7 -0.214222 -0.933809 -0.286549 -0.999901
-28.3866 -34.045 -0.623625 0.0689685 0 -1.3 -0.809648 0.146735 -0.568277 -0.0463836
-27.6506 -20.4801 -3.50338 0.402101 0 -0.9 -0.493109 -0.748461 -0.443452 -0.253218
-26.76 -29.831 -2.521 -1.15666 -0.186631 1.9 -0.648259 0.507365 -0.567751 -0.630954
-30.6535 -23.6095 -9.55275 -0.0100907 -0.143474 -0.9 -0.15618 -0.639331 0.752903 0.286289
-32.847 -20.288 -9.379 1.61714 0 -4.5 -0.0598406 -0.476096 0.877355 -0.722385
-35.8408 -28.4382 3.2705 0.461188 0 -1.86887 -0.540879 -0.0900779 -0.836263 0.569607
-32.9207 -23.337 -9.56825 0.242106 0 -4.5 -0.203755 -0.174808 0.963289 0.217839
-36.283 -30.462 4.288 0.361442 0 2.8 -0.393144 -0.19597 -0.898351 -0.0773619
-26.965 -37.2635 -0.3445 -0.159697 0 -3.5 -0.420144 -0.892866 -0.162078 -0.250021
-38.387 -26.6425 5.539 1.71801 0 -3.9 -0.609182 -0.746721 -0.26703 -0.999869
-29.2495 -32.6278 0.287 -0.286029 0 -1.3 -0.363375 -0.0354587 -0.930968 -0.262248
-32.1507 -29.5858 0.13425 -0.384116 0 -1.3 -0.311709 -0.521701 -0.794144 0.0632489
-37.0607 -23.5231 -5.98887 -0.271774 -0.0787519 -3.89574 0.948498 0.0554168 -0.311899 0.323728
-26.079 -37.6145 -1.23275 -0.637047 0 -3.5 -0.120902 -0.990032 -0.0722471 0.999888
-37.9408 -24.939 -7.4065 -1.34979 -0.643475 -3.5 0.870321 0.0785102 -0.486187 -0.999914
-24.7295 -26.458 -2.556 0.462992 0 1.9 -0.866595 0.237579 -0.438828 -0.878251
-27.2926 -33.4811 -5.5255 -0.210747 0 4.5 -0.495504 0.449874 -0.743027 -0.999894
-35.7225 -34.212 5.33075 0.0745153 -0.1799 2.07723 -0.0456405 -0.736756 -0.674617 0.999901
-35.317 -25.765 2.3805 0.0735145 0 -3.5 -0.515771 -0.759109 -0.397157 -0.73048
-32.5433 -19.4428 -7.067 4.65171 0 -4.5 -0.177943 -0.934098 -0.309512 -0.736127
-39.5254 -27.2105 3.31188 1.36787 0 -3.9 0.307464 -0.948068 -0.0814371 0.999931
-37.322 -28.0715 7.54525 1.43856 0.71663 -3.9 -0.972973 -0.229467 -0.0258508 -0.999923
-34.0215 -26.536 1.4025 -0.853555 -0.0237471 -3.5 -0.824165 -0.505273 -0.255833 -0.795568
-31.4754 -33.9169 4.63613 -0.389087 0 -0.7 -0.148905 -0.830473 -0.536789 -0.842871
-26.2909 -28.5249 -2.65462 -0.473522 0 1.9 -0.671211 0.38962 -0.630613 0.20275
-35.6465 -21.2218 -3.34025 0.578173 0 -4.5 0.165364 -0.809028 -0.564028 -0.756276
-33.2988 -19.8456 -5.965 1.0342 0.45846 -4.5 -0.210083 -0.863485 -0.45854 -0.530244
-33.6287 -29.1432 1.92425 0.338387 0 2.8 -0.82332 -0.410738 -0.391712 -0.158786
-26.9141 -23.4058 -5.9905 -0.119559 0 1.60178 -0.688088 -0.499517 0.526324 0.999868
-24.372 -29.289 -4.847 0.5402 0 -0.670065 -0.4753 0.078144 -0.876346 0.606727
-34.7195 -20.6192 -4.38925 0.851406 0.0677036 -4.5 -0.159565 -0.801782 -0.57592 -0.495648
-28.1649 -35.8756 -3.50213 -0.30355 0 -1.89607 -0.967894 -0.108007 0.226969 -0.999882
-30.1157 -34.5745 4.65775 -0.0867112 0 -0.7 -0.420025 -0.571094 -0.705288 -0.631994
-30.3626 -32.877 0.47975 -0.327139 0 -1.3 -0.373404 -0.380319 -0.846125 0.395725
-31.3354 -21.1243 -8.6975 1.70023 0 -3.04365 -0.437509 -0.294068 0.84977 -0.319498
-29.914 -24.6467 -10.1975 0.0470803 -0.436294 -0.9 -0.14059 -0.614967 0.775919 0.999915
-36.9436 -33.2839 4.22775 0.415513 0 2.8 0.232582 -0.152222 -0.96059 0.999919
-36.3055 -23.962 -0.3615 0.446435 0 -4.06721 -0.392366 -0.842323 -0.369515 -0.157939
-25.4855 -23.133 -5.25675 0.428087 0 1.9 -0.490396 -0.584402 0.646519 -0.26288
-24.9375 -33.4142 -6.107 -1.82406 -0.0854304 -3.5 -0.00189614 0.404888 -0.914364 0.999927
-35.2573 -24.7731 -0.946625 -0.0956141 -0.472416 -4.39945 -0.542598 -0.642657 -0.540907 0.556441
-37.773 -30.5513 5.74162 1.96097 0.848636 -3.9 -0.645775 0.614546 -0.453109 -0.999932
-37.1651 -22.8009 -3.62256 0.735481 0 -4.5 0.9664 -0.2394 -0.0935884 -0.133219
-36.658 -22.6165 -9.579 -1.17124 -0.460459 -3.55864 0.606266 -0.760165 0.233648 -0.999884
-38.146 -27.0653 -5.429 -0.257832 0 -0.651982 0.679292 -0.566356 0.466694 -0.999901
-38.4632 -26.4094 2.00444 1.58415 0 -3.5 0.451412 -0.64491 -0.6167 0.999854
-26.8908 -21.6383 -5.96425 -0.0707825 0 -0.9 -0.936263 -0.101913 0.336192 0.0213274
-36.3665 -27.4172 3.849 3.87747 0 -3.5 -0.673382 0.0927221 -0.733458 0.32531
-29.8005 -34.1925 0.671 -0.325899 0 -1.3 -0.69473 -0.402902 -0.595836 0.206161
-40.3016 -26.6309 1.9335 1.28802 0.0274189 -0.8 -0.0593245 -0.670475 -0.739556 0.999923
-25.5316 -24.1614 -2.112 0.757695 0 1.9 -0.473605 -0.1472 -0.868349 -0.436179
-32.419 -21.8701 -4.47662 0.488126 0 -1.68461 -0.0354487 -0.831037 -0.555087 0.637759
-32.3888 -28.1075 -1.44362 0.445151 -0.0634077 -1.3 -0.251336 -0.557356 -0.791318 0.807029
-27.934 -25.294 -1.28125 0.384401 0 1.9 -0.0373588 -0.137234 -0.989834 -0.403431
-39.5353 -26.7302 -3.636 -0.182002 -0.228836 -3.5 0.43213 -0.358692 0.827408 0.999886
-29.0028 -27.1677 -1.50475 0.852524 0 1.9 -0.0263131 0.0421601 -0.998764 -0.203181
-28.777 -20.1373 -3.91925 -0.0290311 0 -0.9 0.177717 -0.959041 -0.220584 -0.345877
-36.611 -23.2812 -1.165 0.98502 0 -4.5 -0.208758 -0.849584 -0.484383 -0.30593
-28.023 -34.078 -1.803 0.0121747 0 -1.3 -0.998917 0.0256872 -0.0387885 -0.223167
-31.4102 -31.1423 0.370937 -0.252202 0 -1.3 -0.244804 -0.238341 -0.939821 0.350757
-22.197 -27.9877 -6.4645 0.216016 0 -2.91269 -0.708725 -0.0361054 -0.70456 0.999885
-36.664 -26.483 4.111 1.16145 0 -3.5 -0.27747 -0.634424 -0.721468 -0.432858
-27.6945 -32.879 -1.6955 0.318382 0 -1.3 -0.997798 0.0655192 0.010347 -0.702322
-34.8404 -28.6904 2.67425 -0.0996599 -0.286979 -0.364306 -0.520456 -0.302258 -0.798602 0.389362
-27.0285 -21.9355 -2.28575 0.341503 0 0.594267 -0.623502 -0.465606 -0.628058 -0.219909
-29.724 -30.926 0.40825 0.172079 0 -1.3 -0.221283 -0.302985 -0.926948 -0.958831
-31.1249 -20.6504 -6.57206 0.622811 0 -3.84752 -0.0894809 -0.94312 -0.320183 0.170404
-33.1711 -21.2861 -9.61112 1.47995 0 -4.5 -0.31418 -0.138801 0.939162 -0.391893
-36.88 -25.9708 -4.9345 -0.648939 -0.598489 -3.5 0.899187 -0.39922 0.179127 0.999873
-26.7821 -31.8535 -4.98212 0.259426 0 4.5 -0.374052 0.553076 -0.744441 0.624762
-39.4818 -23.2711 -0.5725 -0.516641 -0.0807794 -2.59153 -0.0282011 -0.987864 0.152738 -0.215428
-24.3853 -30.9977 -4.53331 1.1826 0 -3.5 -0.372258 0.316859 -0.872367 -0.690125
-33.7723 -27.3365 -0.530125 -0.916678 -0.715363 -4.07728 -0.860191 -0.305742 -0.408159 0.690084
-31.5483 -33.2902 3.18537 -1.12935 -0.878972 -0.7 -0.392863 -0.866013 -0.309322 -0.292747
-32.3696 -30.9998 0.932 0.123097 0 2.8 -0.740344 -0.375635 -0.557485 0.368942
-37.0686 -29.6856 5.04325 1.84232 0.21471 -3.5856 -0.898186 0.0967043 -0.428848 -0.0423348
-40.739 -24.9965 1.52663 -0.122783 -0.0783024 -0.8 -0.142942 -0.243339 -0.959351 -0.999915
-28.2857 -29.5314 -1.59738 -0.641573 -0.276638 1.9 -0.459034 -0.184429 -0.869065 -0.0642969
-24.5888 -25.485 -3.09725 -0.457141 0 1.9 -0.86582 -0.0678212 -0.495738 -0.285076
-29.8585 -20.4776 -5.33275 -0.357412 0 -0.9 0.415874 -0.89757 -0.146347 0.0979566
-23.4072 -25.856 -5.0915 0.261887 0 0.82292 -0.761781 -0.339029 -0.552041 -0.0448639
-28.5693 -37.3715 1.50775 -1.19696 -0.0372177 -3.5 -0.849657 -0.482586 -0.212587 0.999852
-37.4832 -25.5648 2.74331 1.88294 0 -3.5 0.169632 -0.787638 -0.592328 -0.362598
-37.2049 -28.3178 5.32331 3.15897 0 -3.9 -0.953873 -0.221115 -0.203064 0.0562794
-27.918 -30.8501 -2.23281 -0.418247 -0.152872 0.871852 -0.944048 0.123068 -0.305986 0.0559196
-30.0723 -20.6686 -3.73563 -0.0529977 0 -0.9 0.519317 -0.84727 -0.111547 -0.572786
-28.1175 -21.359 -1.324 0.382106 0 -0.9 -0.472268 -0.442304 -0.76245 -0.999836
-34.437 -24.1607 -2.04925 0.33688 -0.0206812 -4.5 -0.246412 -0.557533 -0.792741 0.734929
-29.3875 -34.804 2.49425 -0.0724615 0 -0.7 -0.807537 -0.570812 0.148521 -0.269029
-26.4177 -21.5044 -4.21025 0.336514 0 -0.267194 -0.755163 -0.653852 -0.0469708 -0.130914
-25.613 -24.492 -6.8095 0.32894 0 -0.4 -0.404162 -0.857627 0.318008 0.999864
-25.2411 -28.1283 -4.09613 0.633177 0 0.257041 -0.66576 0.40064 -0.629485 0.792406
-32.4916 -24.5046 -1.84512 0.420232 0 -0.9 0.0691712 -0.0743091 -0.994833 0.027504
-27.3798 -23.2424 -7.61438 0.585945 0 -3.87213 -0.780636 -0.473379 0.408068 0.163393
-35.3385 -32.3187 4.07775 -0.211151 0 2.8 -0.34596 -0.19639 -0.917465 -0.0654792
-31.1887 -21.3237 -5.02187 0.103849 0 -0.9 0.23828 -0.901441 -0.361422 0.418567
-34.3658 -33.8328 4.28719 0.090444 0 -0.7 -0.23239 -0.840821 -0.488892 0.445469
-35.9261 -21.525 -7.92712 0.716674 0 -4.5 0.716835 -0.633623 0.290981 0.249763
-34.2133 -32.2301 3.25194 -0.525721 0 2.8 -0.524319 -0.0479813 -0.850169 0.575125
-37.6413 -23.7496 -3.15291 0.828179 0 -4.20887 0.705301 -0.561046 0.433334 0.113517
-32.514 -26.811 -1.83556 0.0101644 0 -3.2 -0.435394 -0.164031 -0.88517 0.728099
-30.7518 -21.439 -3.085 -0.345497 0 -0.9 0.564977 -0.785506 -0.252548 0.185799
-40.6598 -25.6187 -3.50975 -0.45373 -0.0657547 1.9 -0.11926 -0.551557 0.825568 -0.999919
-28.8045 -30.4638 -0.36525 1.42369 0 -1.3 -0.618717 -0.361134 -0.69769 -0.60402
-39.1535 -25.0942 -2.94168 0.379316 0 -3.5 0.226101 -0.627057 0.745438 0.285424
3 297 171 177
3 1 171 297
3 177 295 297
3 171 1 87
3 263 1 297
3 295 247 297
3 1 263 87
3 87 113 171
3 297 166 263
3 297 247 40
3 263 44 87
3 113 87 70
3 166 297 292
3 166 56 263
3 247 237 40
3 292 297 40
3 263 183 44
3 70 87 44
3 56 166 292
3 263 56 250
3 247 35 237
3 237 261 40
3 292 40 156
3 183 263 83
3 183 70 44
3 292 168 56
3 250 56 168
3 250 83 263
3 41 261 237
3 40 261 156
3 235 292 156
3 126 183 83
3 269 70 183
3 292 235 168
3 250 168 43
3 83 250 230
3 104 261 41
3 156 261 205
3 97 235 156
3 164 183 126
3 83 66 126
3 183 164 269
3 235 90 168
3 168 187 43
3 43 233 250
3 250 233 230
3 66 83 230
3 261 104 205
3 97 156 205
3 97 37 235
3 126 238 164
3 238 126 66
3 269 164 242
3 235 37 90
3 218 168 90
3 187 168 218
3 280 43 187
3 43 280 233
3 233 141 230
3 100 66 230
3 104 207 205
3 145 97 205
3 145 37 97
3 238 242 164
3 275 238 66
3 90 37 218
3 187 218 223
3 79 280 187
3 131 233 280
3 233 160 141
3 100 230 141
3 275 66 100
3 205 207 21
3 205 21 145
3 38 37 145
3 238 213 242
3 238 275 96
3 37 149 218
3 149 223 218
3 223 13 187
3 79 22 280
3 79 187 124
3 233 131 155
3 285 131 280
3 160 233 155
3 160 211 141
3 275 100 141
3 69 21 207
3 145 21 69
3 38 149 37
3 145 61 38
3 213 238 96
3 275 254 96
3 223 149 182
3 223 114 13
3 13 244 187
3 176 22 79
3 22 285 280
3 187 244 124
3 176 79 124
3 155 131 265
3 131 285 293
3 155 211 160
3 211 275 141
3 145 69 106
3 149 38 61
3 145 290 61
3 96 7 213
3 275 211 254
3 254 202 96
3 149 122 182
3 182 219 223
3 114 223 219
3 114 244 13
3 176 285 22
3 124 244 294
3 176 124 294
3 265 131 293
3 215 155 265
3 285 16 293
3 215 211 155
3 10 106 69
3 290 145 106
3 122 149 61
3 122 61 290
3 96 202 7
3 254 211 46
3 202 254 240
3 182 122 108
3 219 182 108
3 114 219 191
3 114 288 244
3 161 285 176
3 294 244 288
3 294 54 176
3 245 265 293
3 265 59 215
3 16 285 147
3 293 16 175
3 170 211 215
3 10 236 106
3 236 290 106
3 99 122 290
3 170 46 211
3 46 240 254
3 202 240 276
3 142 108 122
3 108 212 219
3 219 212 191
3 114 191 288
3 161 127 285
3 161 176 54
3 294 288 278
3 54 294 178
3 265 245 134
3 293 175 245
3 65 59 265
3 170 215 59
3 127 147 285
3 16 147 175
3 290 236 81
3 99 142 122
3 81 99 290
3 170 240 46
3 240 63 276
3 202 276 28
3 212 108 142
3 191 212 259
3 288 191 259
3 116 127 161
3 116 161 54
3 278 288 272
3 101 294 278
3 101 178 294
3 116 54 178
3 204 134 245
3 265 134 65
3 245 175 33
3 59 65 220
3 256 170 59
3 127 80 147
3 147 2 175
3 81 236 8
3 142 99 4
3 99 81 4
3 170 198 240
3 198 63 240
3 63 268 276
3 276 214 28
3 142 158 212
3 158 259 212
3 259 272 288
3 173 127 116
3 272 249 278
3 278 249 101
3 101 279 178
3 116 178 279
3 74 134 204
3 33 204 245
3 74 65 134
3 33 175 121
3 65 74 220
3 220 256 59
3 198 170 256
3 80 127 246
3 80 2 147
3 121 175 2
3 81 8 103
3 142 4 197
3 81 82 4
3 200 63 198
3 200 268 63
3 143 276 268
3 276 143 214
3 88 158 142
3 259 158 150
3 272 259 9
3 127 173 246
3 116 31 173
3 272 67 249
3 101 249 194
3 279 101 194
3 116 279 31
3 74 204 267
3 204 33 139
3 33 121 125
3 267 220 74
3 24 256 220
3 256 200 198
3 80 246 248
3 248 2 80
3 248 121 2
3 82 81 103
3 197 4 260
3 197 88 142
3 4 82 260
3 268 200 137
3 268 234 143
3 88 227 158
3 227 150 158
3 150 9 259
3 272 9 86
3 246 173 71
3 173 31 129
3 86 67 272
3 249 67 29
3 29 194 249
3 257 279 194
3 279 129 31
3 267 204 252
3 125 139 33
3 204 139 252
3 248 125 121
3 267 153 220
3 24 25 256
3 24 220 153
3 256 25 200
3 167 248 246
3 82 103 30
3 260 227 197
3 88 197 227
3 199 260 82
3 107 137 200
3 137 234 268
3 227 118 150
3 9 150 92
3 86 9 186
3 71 173 129
3 246 71 12
3 67 86 174
3 67 174 29
3 282 194 29
3 257 129 279
3 194 282 257
3 252 64 267
3 270 139 125
3 258 252 139
3 109 125 248
3 153 267 130
3 169 25 24
3 169 24 153
3 15 200 25
3 248 167 109
3 42 167 246
3 103 110 30
3 199 82 30
3 227 260 135
3 199 135 260
3 107 85 137
3 200 287 107
3 85 234 137
3 118 227 98
3 92 150 118
3 9 92 186
3 86 186 174
3 71 129 12
3 246 12 132
3 29 174 282
3 257 159 129
3 282 159 257
3 64 252 226
3 267 64 130
3 270 296 139
3 270 125 109
3 203 252 258
3 296 258 139
3 153 130 169
3 169 291 25
3 15 287 200
3 291 15 25
3 109 167 77
3 72 167 42
3 42 246 132
3 199 30 110
3 135 98 227
3 112 135 199
3 68 85 107
3 229 107 287
3 98 89 118
3 92 118 20
3 92 20 186
3 186 76 174
3 129 243 12
3 132 12 243
3 239 282 174
3 243 129 159
3 159 282 163
3 226 252 203
3 102 64 226
3 64 102 130
3 277 296 270
3 109 77 270
3 203 258 296
3 169 130 291
3 291 287 15
3 167 72 77
3 72 42 52
3 42 132 52
3 110 27 199
3 112 98 135
3 112 199 27
3 107 229 68
3 287 210 229
3 98 196 89
3 89 60 118
3 118 60 20
3 186 20 76
3 239 174 76
3 132 243 271
3 282 239 117
3 243 159 163
3 163 282 140
3 226 203 241
3 123 102 226
3 266 130 102
3 277 133 296
3 195 277 270
3 77 217 270
3 133 203 296
3 291 130 148
3 291 148 287
3 72 217 77
3 72 52 208
3 52 132 208
3 110 55 27
3 196 98 112
3 73 112 27
3 287 289 210
3 228 89 196
3 138 60 89
3 286 20 60
3 76 20 286
3 286 239 76
3 188 271 243
3 271 208 132
3 117 239 221
3 117 231 282
3 243 163 188
3 231 140 282
3 163 140 188
3 193 241 203
3 241 123 226
3 266 102 123
3 148 130 266
3 255 133 277
3 195 144 277
3 217 195 270
3 203 133 0
3 287 148 289
3 284 217 72
3 284 72 208
3 112 73 196
3 289 51 210
3 89 228 14
3 196 73 228
3 60 138 286
3 14 138 89
3 286 221 239
3 271 188 3
3 208 271 154
3 117 221 231
3 231 128 140
3 140 128 188
3 241 193 62
3 193 203 0
3 115 123 241
3 266 123 115
3 148 266 105
3 0 133 255
3 255 277 190
3 36 144 195
3 190 277 144
3 84 195 217
3 289 148 105
3 217 284 84
3 284 208 154
3 51 289 192
3 286 138 19
3 138 14 19
3 48 221 286
3 3 188 128
3 3 273 271
3 271 273 154
3 221 283 231
3 283 128 231
3 193 251 62
3 241 62 180
3 193 0 255
3 281 115 241
3 93 266 115
3 216 105 266
3 179 255 190
3 36 262 144
3 36 195 84
3 190 144 189
3 192 289 105
3 84 284 222
3 284 154 152
3 58 286 19
3 48 283 221
3 48 286 58
3 128 273 3
3 154 273 152
3 128 283 23
3 251 193 255
3 251 162 62
3 180 62 162
3 180 120 241
3 93 115 281
3 281 241 120
3 216 266 93
3 105 216 165
3 251 255 179
3 189 179 190
3 36 91 262
3 262 189 144
3 91 36 84
3 165 192 105
3 152 222 284
3 264 84 222
3 273 128 23
3 273 18 152
3 283 78 23
3 119 162 251
3 201 180 162
3 274 120 180
3 151 93 281
3 120 274 281
3 216 93 225
3 216 225 165
3 251 179 224
3 179 189 146
3 262 91 75
3 209 189 262
3 264 91 84
3 222 152 32
3 264 222 32
3 23 95 273
3 18 273 253
3 152 18 253
3 23 78 95
3 162 119 111
3 119 251 224
3 180 201 184
3 201 162 111
3 274 180 184
3 225 93 151
3 151 281 17
3 274 57 281
3 225 11 165
3 179 157 224
3 189 209 146
3 179 146 157
3 75 91 264
3 34 262 75
3 34 209 262
3 152 136 32
3 94 264 32
3 273 95 50
3 273 50 253
3 136 152 253
3 201 39 184
3 201 111 206
3 225 151 45
3 281 57 17
3 45 151 17
3 6 11 225
3 75 264 26
3 34 75 232
3 32 136 94
3 264 94 26
3 253 50 5
3 206 39 201
3 45 6 225
3 17 57 49
3 45 17 49
3 53 75 26
3 232 75 53
3 26 94 181
3 172 39 206
3 53 26 181
3 185 172 206
3 172 185 47
